<?xml version="1.0" encoding="UTF-8" standalone="no"?>
<svg width="27px" height="34px" viewBox="0 0 27 34" version="1.1" xmlns="http://www.w3.org/2000/svg" xmlns:xlink="http://www.w3.org/1999/xlink">
    <!-- Generator: Sketch 3.7.2 (28276) - http://www.bohemiancoding.com/sketch -->
    <title>Icon</title>
    <desc>Created with Sketch.</desc>
    <defs></defs>
    <g id="Page-1" stroke="none" stroke-width="1" fill="none" fill-rule="evenodd">
        <g id="Icons" transform="translate(-23.000000, -450.000000)" fill="#43484D">
            <path d="M25,482 L25,452 L39,452 L39,458 C39,459.654 40.346,461 42,461 L48,461 L48,482 L25,482 Z M41,452.828 L47.172,459 L42,459 C41.449,459 41,458.551 41,458 L41,452.828 Z M41,450 L25,450 C23.895,450 23,450.895 23,452 L23,482 C23,483.105 23.895,484 25,484 L48,484 C49.105,484 50,483.105 50,482 L50,459 L41,450 Z" id="Icon"></path>
        </g>
    </g>
</svg>