<?xml version="1.0" encoding="utf-8"?>
<!-- Generator: Adobe Illustrator 16.0.0, SVG Export Plug-In . SVG Version: 6.00 Build 0)  -->
<!DOCTYPE svg PUBLIC "-//W3C//DTD SVG 1.1//EN" "http://www.w3.org/Graphics/SVG/1.1/DTD/svg11.dtd">
<svg version="1.1" id="Layer_1" xmlns="http://www.w3.org/2000/svg" xmlns:xlink="http://www.w3.org/1999/xlink" x="0px" y="0px"
	 width="100px" height="100px" viewBox="0 0 100 100" enable-background="new 0 0 100 100" xml:space="preserve">
<g>
	<path d="M62.391,71.766c-0.158,0-0.318-0.038-0.465-0.115L50,65.381l-11.927,6.27c-0.337,0.177-0.745,0.147-1.054-0.076
		c-0.307-0.224-0.461-0.603-0.397-0.978l2.278-13.28l-9.648-9.405c-0.273-0.266-0.371-0.663-0.254-1.025
		c0.117-0.362,0.431-0.626,0.808-0.681l13.334-1.938l5.963-12.083c0.337-0.683,1.457-0.683,1.794,0l5.963,12.083l13.334,1.938
		c0.377,0.055,0.689,0.319,0.808,0.681c0.118,0.362,0.02,0.759-0.253,1.025L61.1,57.316l2.277,13.28
		c0.064,0.375-0.09,0.754-0.398,0.978C62.805,71.701,62.598,71.766,62.391,71.766z M50,63.251c0.159,0,0.319,0.038,0.465,0.115
		l10.598,5.572l-2.023-11.801c-0.056-0.324,0.052-0.655,0.287-0.885l8.574-8.357l-11.85-1.722c-0.325-0.047-0.606-0.252-0.752-0.547
		L50,34.888l-5.299,10.737c-0.146,0.295-0.428,0.5-0.754,0.547l-11.85,1.722l8.575,8.357c0.235,0.23,0.343,0.561,0.288,0.885
		l-2.025,11.801l10.599-5.572C49.68,63.289,49.84,63.251,50,63.251z"/>
</g>
</svg>
