<?xml version="1.0" encoding="utf-8"?>
<!-- Generator: Adobe Illustrator 18.1.1, SVG Export Plug-In . SVG Version: 6.00 Build 0)  -->
<svg version="1.1" id="Icons" xmlns="http://www.w3.org/2000/svg" xmlns:xlink="http://www.w3.org/1999/xlink" x="0px" y="0px"
	 viewBox="0 0 144 144" enable-background="new 0 0 144 144" xml:space="preserve">
<g id="Travel_Planning">
</g>
<g id="Globe_1_">
</g>
<g id="Map">
	<g id="XMLID_439_">
		<path id="XMLID_612_" opacity="0.1" d="M90,63c-12.15,0-22,9.85-22,22c0,22,20,42,22,42s22-19.75,22-42C112,72.85,102.15,63,90,63
			z M90,97c-6.627,0-12-5.373-12-12c0-6.627,5.373-12,12-12s12,5.373,12,12C102,91.627,96.627,97,90,97z"/>

			<polygon id="XMLID_540_" fill="none" stroke-width="4" stroke-linecap="round" stroke-linejoin="round" stroke-miterlimit="10" points="
			44,89.649 16,101 16,28.351 44,17 		"/>

			<polyline id="XMLID_447_" fill="none"  stroke-width="4" stroke-linecap="round" stroke-linejoin="round" stroke-miterlimit="10" points="
			110.933,93.878 128,101 128,28.351 100,17 100,65 		"/>

			<path id="XMLID_562_" fill="none"  stroke-width="4" stroke-linecap="round" stroke-linejoin="round" stroke-miterlimit="10" d="
			M68,85c0,22,20,42,22,42s22-19.75,22-42c0-12.15-9.85-22-22-22S68,72.85,68,85z"/>

			<circle id="XMLID_563_" fill="none"  stroke-width="4" stroke-linecap="round" stroke-linejoin="round" stroke-miterlimit="10" cx="90" cy="85" r="12"/>

			<polyline id="XMLID_448_" fill="none"  stroke-width="4" stroke-linecap="round" stroke-linejoin="round" stroke-miterlimit="10" points="
			100,65 100,17 72,28.351 72,72 		"/>

			<polyline id="XMLID_449_" fill="none"  stroke-width="4" stroke-linecap="round" stroke-linejoin="round" stroke-miterlimit="10" points="
			72,72 72,28.351 44,17 44,89.649 71.077,100.447 		"/>
	</g>
</g>
<g id="Flight_Date">
</g>
<g id="Alarm_Clock">
</g>
<g id="Small_Suitcase">
</g>
<g id="Backpack">
</g>
<g id="Large_Suitcase">
</g>
<g id="Toiletries">
</g>
<g id="Camera">
</g>
<g id="Phone">
</g>
<g id="Laptop">
</g>
<g id="Passport">
</g>
<g id="Taxi">
</g>
<g id="Signs">
</g>
<g id="Airport">
</g>
<g id="Wind_Sock">
</g>
<g id="Check-In">
</g>
<g id="Ticket">
</g>
<g id="Wallet">
</g>
<g id="Tag">
</g>
<g id="Escalator">
</g>
<g id="Body_Scanner">
</g>
<g id="Walking_with_Suitcase">
</g>
<g id="Gate_Number">
</g>
<g id="Seats">
</g>
<g id="Seat_Belt">
</g>
<g id="Take_Off">
</g>
<g id="Plane_Window">
</g>
<g id="International_Travel">
</g>
<g id="Meal">
</g>
<g id="Landing">
</g>
<g id="Shuttle_Bus">
</g>
<g id="Hotel">
</g>
<g id="Hotel_Check-In">
</g>
<g id="Valet_1_">
</g>
<g id="Baggage_Trolley">
</g>
<g id="Door_Hanger">
</g>
<g id="Hotel_Room">
</g>
<g id="Shower">
</g>
</svg>
