<?xml version="1.0" encoding="utf-8"?>
<!-- Generator: Adobe Illustrator 18.1.1, SVG Export Plug-In . SVG Version: 6.00 Build 0)  -->
<svg version="1.1" id="Icons" xmlns="http://www.w3.org/2000/svg" xmlns:xlink="http://www.w3.org/1999/xlink" x="0px" y="0px"
	 viewBox="0 0 144 144" enable-background="new 0 0 144 144" xml:space="preserve">
<g id="Travel_Planning">
</g>
<g id="Globe_1_">
</g>
<g id="Map">
</g>
<g id="Flight_Date">
</g>
<g id="Alarm_Clock">
</g>
<g id="Small_Suitcase">
</g>
<g id="Backpack">
</g>
<g id="Large_Suitcase">
	<g id="XMLID_519_">
		<path id="XMLID_1368_" opacity="0.1" d="M86,24H58c-3.3,0-6,2.7-6,6v10h8v-8h24v8h8V30C92,26.7,89.3,24,86,24z"/>
		<path id="XMLID_1367_" opacity="0.1" d="M17,110v4c0,3.3,2.7,6,6,6h98c3.3,0,6-2.7,6-6v-4H17z"/>
		<path id="XMLID_1366_" opacity="0.1" d="M107,74h-4c-1.1,0-2-0.9-2-2V62c0-1.1,0.9-2,2-2h4c1.1,0,2,0.9,2,2v10
			C109,73.1,108.1,74,107,74z"/>
		<path id="XMLID_1365_" opacity="0.1" d="M41,74h-4c-1.1,0-2-0.9-2-2V62c0-1.1,0.9-2,2-2h4c1.1,0,2,0.9,2,2v10
			C43,73.1,42.1,74,41,74z"/>

			<path id="XMLID_1364_" fill="none" stroke-width="4" stroke-linecap="round" stroke-linejoin="round" stroke-miterlimit="10" d="
			M92,40H52V30c0-3.3,2.7-6,6-6h28c3.3,0,6,2.7,6,6V40z"/>
		<g id="XMLID_1363_">
			<path id="XMLID_30_" d="M82,34v4H62v-4H82 M84,30H60c-1.105,0-2,0.895-2,2v10h28V32C86,30.895,85.105,30,84,30L84,30z"/>
		</g>

			<path id="XMLID_1362_" fill="none" stroke-width="4" stroke-linecap="round" stroke-linejoin="round" stroke-miterlimit="10" d="
			M121,40H23c-3.3,0-6,2.7-6,6v68c0,3.3,2.7,6,6,6h98c3.3,0,6-2.7,6-6V46C127,42.7,124.3,40,121,40z"/>

			<line id="XMLID_1361_" fill="none" stroke-width="4" stroke-linecap="round" stroke-linejoin="round" stroke-miterlimit="10" x1="39" y1="40" x2="39" y2="60"/>

			<line id="XMLID_1360_" fill="none" stroke-width="4" stroke-linecap="round" stroke-linejoin="round" stroke-miterlimit="10" x1="105" y1="40" x2="105" y2="60"/>

			<line id="XMLID_1359_" fill="none" stroke-width="4" stroke-linecap="round" stroke-linejoin="round" stroke-miterlimit="10" x1="39" y1="74" x2="39" y2="120"/>

			<line id="XMLID_1358_" fill="none" stroke-width="4" stroke-linecap="round" stroke-linejoin="round" stroke-miterlimit="10" x1="105" y1="74" x2="105" y2="120"/>

			<path id="XMLID_1357_" fill="none" stroke-width="4" stroke-linecap="round" stroke-linejoin="round" stroke-miterlimit="10" d="
			M41,74h-4c-1.1,0-2-0.9-2-2V62c0-1.1,0.9-2,2-2h4c1.1,0,2,0.9,2,2v10C43,73.1,42.1,74,41,74z"/>

			<path id="XMLID_1356_" fill="none" stroke-width="4" stroke-linecap="round" stroke-linejoin="round" stroke-miterlimit="10" d="
			M107,74h-4c-1.1,0-2-0.9-2-2V62c0-1.1,0.9-2,2-2h4c1.1,0,2,0.9,2,2v10C109,73.1,108.1,74,107,74z"/>

			<line id="XMLID_1355_" fill="none" stroke-width="4" stroke-linecap="round" stroke-linejoin="round" stroke-miterlimit="10" x1="17" y1="110" x2="127" y2="110"/>
	</g>
</g>
<g id="Toiletries">
</g>
<g id="Camera">
</g>
<g id="Phone">
</g>
<g id="Laptop">
</g>
<g id="Passport">
</g>
<g id="Taxi">
</g>
<g id="Signs">
</g>
<g id="Airport">
</g>
<g id="Wind_Sock">
</g>
<g id="Check-In">
</g>
<g id="Ticket">
</g>
<g id="Wallet">
</g>
<g id="Tag">
</g>
<g id="Escalator">
</g>
<g id="Body_Scanner">
</g>
<g id="Walking_with_Suitcase">
</g>
<g id="Gate_Number">
</g>
<g id="Seats">
</g>
<g id="Seat_Belt">
</g>
<g id="Take_Off">
</g>
<g id="Plane_Window">
</g>
<g id="International_Travel">
</g>
<g id="Meal">
</g>
<g id="Landing">
</g>
<g id="Shuttle_Bus">
</g>
<g id="Hotel">
</g>
<g id="Hotel_Check-In">
</g>
<g id="Valet_1_">
</g>
<g id="Baggage_Trolley">
</g>
<g id="Door_Hanger">
</g>
<g id="Hotel_Room">
</g>
<g id="Shower">
</g>
</svg>
