<?xml version="1.0" encoding="iso-8859-1"?>
<!-- Generator: Adobe Illustrator 18.0.0, SVG Export Plug-In . SVG Version: 6.00 Build 0)  -->
<!DOCTYPE svg PUBLIC "-//W3C//DTD SVG 1.1//EN" "http://www.w3.org/Graphics/SVG/1.1/DTD/svg11.dtd">
<svg version="1.1" id="Capa_1" xmlns="http://www.w3.org/2000/svg" xmlns:xlink="http://www.w3.org/1999/xlink" x="0px" y="0px"
	 viewBox="0 0 412.979 412.979" style="enable-background:new 0 0 412.979 412.979;" xml:space="preserve">
<path d="M361.876,129.692l-27.767-24.295c-0.728-0.638-1.665-0.99-2.634-0.99H218.628V37.431c5.177-3.766,8.562-9.854,8.562-16.731
	c0-11.414-9.286-20.7-20.7-20.7c-11.414,0-20.7,9.286-20.7,20.7c0,6.877,3.385,12.965,8.562,16.731v26.478H81.503
	c-0.969,0-1.905,0.352-2.634,0.99L51.103,89.194c-0.868,0.759-1.366,1.857-1.366,3.01c0,1.153,0.498,2.25,1.366,3.01l27.766,24.295
	c0.729,0.638,1.665,0.99,2.634,0.99h112.849v27.864h-60.787c-0.969,0-1.905,0.352-2.634,0.99l-27.766,24.295
	c-0.868,0.759-1.366,1.857-1.366,3.01c0,1.153,0.498,2.251,1.366,3.01l27.766,24.295c0.729,0.638,1.665,0.99,2.634,0.99h60.787
	v204.025c0,2.209,1.791,4,4,4s4-1.791,4-4V42.792h8.277v366.188c0,2.209,1.791,4,4,4c2.209,0,4-1.791,4-4V160.997h112.848
	c0.969,0,1.905-0.352,2.634-0.99l27.767-24.295c0.868-0.759,1.366-1.857,1.366-3.01
	C363.243,131.549,362.745,130.451,361.876,129.692z M206.49,8c7.003,0,12.7,5.697,12.7,12.7s-5.697,12.7-12.7,12.7
	c-7.003,0-12.7-5.697-12.7-12.7S199.487,8,206.49,8z M83.005,112.499L59.811,92.204l23.194-20.295h111.346v40.59H83.005z
	 M135.067,196.954l-23.194-20.295l23.194-20.295h59.284v40.59H135.067z M329.973,152.997H218.628v-40.59h111.345l23.195,20.295
	L329.973,152.997z"/>
<g>
</g>
<g>
</g>
<g>
</g>
<g>
</g>
<g>
</g>
<g>
</g>
<g>
</g>
<g>
</g>
<g>
</g>
<g>
</g>
<g>
</g>
<g>
</g>
<g>
</g>
<g>
</g>
<g>
</g>
</svg>
