<?xml version="1.0" encoding="iso-8859-1"?>
<!-- Generator: Adobe Illustrator 18.0.0, SVG Export Plug-In . SVG Version: 6.00 Build 0)  -->
<!DOCTYPE svg PUBLIC "-//W3C//DTD SVG 1.1//EN" "http://www.w3.org/Graphics/SVG/1.1/DTD/svg11.dtd">
<svg version="1.1" id="Capa_1" xmlns="http://www.w3.org/2000/svg" xmlns:xlink="http://www.w3.org/1999/xlink" x="0px" y="0px"
	 viewBox="0 0 459.763 459.763" style="enable-background:new 0 0 459.763 459.763;" xml:space="preserve">
<g>
	<path d="M123.271,256.617h-23.266v8.257h15.009C119.574,264.874,123.271,261.177,123.271,256.617z"/>
	<path d="M77.749,256.617H54.483v8.257h15.008C74.052,264.874,77.749,261.177,77.749,256.617z"/>
	<path d="M168.793,256.617h-23.266v8.257h15.008C165.096,264.874,168.793,261.177,168.793,256.617z"/>
	<path d="M214.314,256.617h-23.266v8.257h15.008C210.617,264.874,214.314,261.177,214.314,256.617z"/>
	<path d="M259.836,256.617h-23.266v8.257h15.008C256.139,264.874,259.836,261.177,259.836,256.617z"/>
	<path d="M305.358,256.617h-23.266v8.257h15.008C301.661,264.874,305.358,261.177,305.358,256.617z"/>
	<path d="M350.88,256.617h-23.266v8.257h15.009C347.183,264.874,350.88,261.177,350.88,256.617z"/>
	<circle cx="407.543" cy="274.43" r="5.498"/>
	<path d="M36.852,303.438c6.911-6.473,17.737-6.473,24.648,0c9.978,9.345,25.609,9.345,35.586,0c6.912-6.472,17.738-6.472,24.649,0
		c9.977,9.345,25.609,9.345,35.586,0c6.911-6.473,17.737-6.473,24.648,0c9.979,9.346,25.61,9.345,35.587,0
		c6.911-6.472,17.738-6.473,24.649,0c9.977,9.345,25.607,9.345,35.586,0c6.911-6.472,17.738-6.474,24.649,0
		c4.989,4.673,11.39,7.009,17.793,7.009c6.401-0.001,12.805-2.337,17.793-7.009c6.911-6.472,17.737-6.472,24.648,0
		c9.979,9.345,25.61,9.345,35.587,0c6.909-6.472,17.737-6.473,24.648,0c9.979,9.346,25.61,9.345,35.586,0
		c1.612-1.51,1.695-4.042,0.185-5.654c-1.51-1.612-4.042-1.695-5.653-0.185c-6.909,6.472-17.737,6.473-24.648,0
		c-0.976-0.914-2.02-1.712-3.094-2.448l30.205-34.592c1.032-1.182,1.278-2.857,0.629-4.286c-0.648-1.428-2.073-2.345-3.642-2.345
		h-33.05l-27.159-35.334c-0.758-0.985-1.93-1.562-3.172-1.562h-2.271l-10.021-19.209c-0.689-1.321-2.057-2.15-3.547-2.15h-9.583
		l-10.02-19.209c-0.689-1.321-2.057-2.15-3.547-2.15h-12.741l-10.02-19.209c-0.689-1.322-2.057-2.15-3.547-2.15H188.126
		c-2.209,0-4,1.791-4,4v17.359h-34.719V118.12c0-2.209-1.791-4-4-4H95.893c-2.209,0-4,1.791-4,4v56.194H45.29c-2.209,0-4,1.791-4,4
		v17.359h-4.817c-2.209,0-4,1.791-4,4v17.359h-5.427c-2.209,0-4,1.791-4,4v19.306h-5.079c-1.869,0-3.489,1.294-3.901,3.117
		l-6.449,28.494c-0.18,0.795-0.113,1.626,0.193,2.383l11.368,28.117c-4.474,0.029-8.957-1.584-12.444-4.849
		c-1.612-1.51-4.144-1.427-5.654,0.185c-1.51,1.612-1.427,4.144,0.185,5.654C11.244,312.783,26.875,312.782,36.852,303.438z
		 M192.126,160.955h129.249l6.968,13.359H192.126V160.955z M141.407,122.12v10.447H99.893V122.12H141.407z M99.893,140.566h41.514
		v33.747H99.893V140.566z M49.29,182.314h298.393l6.968,13.359H49.29V182.314z M40.473,203.673h330.36l6.969,13.359H40.473V203.673z
		 M31.046,225.032h356.08l22.21,28.896h-27.577l-21.136-12.997c-0.631-0.388-1.355-0.593-2.096-0.593H31.046V225.032z
		 M15.696,272.493l5.467-24.155h336.232l21.136,12.997c0.631,0.388,1.355,0.593,2.096,0.593h63.048l-25.904,29.666
		c-8.545-2.435-18.103-0.435-24.977,6.004c-6.91,6.473-17.739,6.472-24.649,0c-9.977-9.345-25.609-9.345-35.586,0
		c-6.911,6.472-17.738,6.474-24.649,0c-9.978-9.345-25.608-9.345-35.586,0c-6.91,6.473-17.738,6.473-24.648,0
		c-9.979-9.345-25.608-9.344-35.586,0c-6.911,6.473-17.737,6.474-24.649,0c-9.978-9.345-25.609-9.345-35.586,0
		c-6.911,6.473-17.737,6.473-24.649,0c-9.978-9.345-25.609-9.344-35.586,0c-6.911,6.473-17.738,6.473-24.649,0
		c-9.977-9.345-25.608-9.345-35.586,0c-1.317,1.234-2.778,2.229-4.326,2.992L15.696,272.493z"/>
	<path d="M453.028,332.795c-6.909,6.472-17.737,6.474-24.648,0c-9.979-9.346-25.61-9.344-35.586,0
		c-6.91,6.472-17.739,6.473-24.649,0c-9.977-9.345-25.609-9.345-35.586,0c-6.911,6.472-17.738,6.474-24.649,0
		c-9.978-9.345-25.608-9.345-35.586,0c-6.91,6.473-17.738,6.473-24.648,0c-9.979-9.345-25.608-9.345-35.586,0
		c-6.911,6.473-17.737,6.473-24.649,0c-9.978-9.345-25.609-9.345-35.586,0c-6.911,6.473-17.737,6.473-24.649,0
		c-9.978-9.345-25.609-9.344-35.586,0c-6.911,6.473-17.738,6.473-24.649,0c-9.977-9.345-25.608-9.345-35.586,0
		c-6.912,6.473-17.738,6.473-24.649,0c-1.612-1.51-4.144-1.427-5.654,0.185s-1.427,4.144,0.185,5.654
		c9.977,9.344,25.608,9.345,35.586,0c6.911-6.473,17.737-6.473,24.648,0c9.978,9.345,25.61,9.345,35.586,0
		c6.912-6.472,17.738-6.472,24.649,0c9.977,9.345,25.609,9.345,35.586,0c6.911-6.473,17.737-6.473,24.648,0
		c9.979,9.345,25.61,9.344,35.587,0c6.912-6.473,17.74-6.472,24.649,0c9.977,9.344,25.607,9.345,35.586,0
		c6.911-6.472,17.738-6.473,24.649,0c4.989,4.673,11.39,7.01,17.793,7.009c6.401,0,12.805-2.337,17.793-7.009
		c6.911-6.472,17.737-6.472,24.648,0c9.979,9.346,25.611,9.344,35.587,0c6.91-6.473,17.738-6.473,24.648,0
		c9.979,9.346,25.61,9.345,35.586,0c1.612-1.51,1.695-4.042,0.185-5.654C457.172,331.368,454.64,331.285,453.028,332.795z"/>
</g>
<g>
</g>
<g>
</g>
<g>
</g>
<g>
</g>
<g>
</g>
<g>
</g>
<g>
</g>
<g>
</g>
<g>
</g>
<g>
</g>
<g>
</g>
<g>
</g>
<g>
</g>
<g>
</g>
<g>
</g>
</svg>
