<?xml version="1.0" encoding="iso-8859-1"?>
<!-- Generator: Adobe Illustrator 18.0.0, SVG Export Plug-In . SVG Version: 6.00 Build 0)  -->
<!DOCTYPE svg PUBLIC "-//W3C//DTD SVG 1.1//EN" "http://www.w3.org/Graphics/SVG/1.1/DTD/svg11.dtd">
<svg version="1.1" id="Capa_1" xmlns="http://www.w3.org/2000/svg" xmlns:xlink="http://www.w3.org/1999/xlink" x="0px" y="0px"
	 viewBox="0 0 423.39 423.39" style="enable-background:new 0 0 423.39 423.39;" xml:space="preserve">
<g>
	<path d="M302.724,179.44h84c1.428,0,2.747-0.761,3.462-1.996c0.715-1.235,0.718-2.758,0.007-3.996l-18-31.334
		c-0.714-1.242-2.036-2.007-3.469-2.007h-66c-2.209,0-4,1.791-4,4v31.333C298.724,177.649,300.515,179.44,302.724,179.44z
		 M306.724,148.106h59.685l13.404,23.333h-73.089V148.106z"/>
	<path d="M109.168,179.44h50.667c2.209,0,4-1.791,4-4v-31.333c0-2.209-1.791-4-4-4h-50.667c-2.209,0-4,1.791-4,4v31.333
		C105.168,177.649,106.959,179.44,109.168,179.44z M113.168,148.106h42.667v23.333h-42.667V148.106z"/>
	<path d="M238.057,179.44h50.667c2.209,0,4-1.791,4-4v-31.333c0-2.209-1.791-4-4-4h-50.667c-2.209,0-4,1.791-4,4v31.333
		C234.057,177.649,235.848,179.44,238.057,179.44z M242.057,148.106h42.667v23.333h-42.667V148.106z"/>
	<path d="M173.612,179.44h50.667c2.209,0,4-1.791,4-4v-31.333c0-2.209-1.791-4-4-4h-50.667c-2.209,0-4,1.791-4,4v31.333
		C169.612,177.649,171.403,179.44,173.612,179.44z M177.612,148.106h42.667v23.333h-42.667V148.106z"/>
	<path d="M44.724,179.44H95.39c2.209,0,4-1.791,4-4v-31.333c0-2.209-1.791-4-4-4H44.724c-2.209,0-4,1.791-4,4v31.333
		C40.724,177.649,42.515,179.44,44.724,179.44z M48.724,148.106H91.39v23.333H48.724V148.106z"/>
	<path d="M340.724,261.139c-9.863,0-17.888,8.024-17.888,17.888c0,9.863,8.024,17.888,17.888,17.888
		c9.863,0,17.888-8.024,17.888-17.888C358.611,269.164,350.587,261.139,340.724,261.139z M340.724,288.915
		c-5.452,0-9.888-4.436-9.888-9.888c0-5.452,4.436-9.888,9.888-9.888c5.452,0,9.888,4.436,9.888,9.888
		C350.611,284.479,346.176,288.915,340.724,288.915z"/>
	<path d="M419.39,257.44h-1.909v-12.884c0.394,0.13,0.806,0.217,1.243,0.217c2.209,0,4-1.791,4-4V221.44c0-2.209-1.791-4-4-4
		c-0.562,0-1.096,0.118-1.581,0.327c-1.195-16.337-5.658-32.437-13.111-47.026l-17.87-35.01
		c-3.842-7.526-11.479-12.201-19.932-12.201h-42.174v-8.09h42c2.209,0,4-1.791,4-4c0-2.209-1.791-4-4-4H40.724c-2.209,0-4,1.791-4,4
		c0,2.209,1.791,4,4,4h62v8.09H33.61c-14.602,0-26.591,11.419-27.296,25.995l-6.31,129.31c-0.054,1.093,0.344,2.161,1.099,2.953
		c0.755,0.793,1.802,1.241,2.897,1.241h34.49c1.694,0,3.204-1.067,3.771-2.664l2.99-8.441c0.808-2.283,2.423-4.12,4.451-5.249
		c-1.398,3.938-2.132,8.108-2.132,12.355c0,20.358,16.563,36.92,36.92,36.92s36.92-16.562,36.92-36.92
		c0-3.99-0.66-7.91-1.897-11.638c1.505,1.126,2.691,2.683,3.346,4.534l2.99,8.44c0.566,1.597,2.076,2.664,3.771,2.664h174.403
		c2.002,18.482,17.695,32.918,36.7,32.918c19.005,0,34.697-14.436,36.699-32.918h36.058c2.209,0,4-1.791,4-4v-13.59h1.909
		c2.209,0,4-1.791,4-4C423.39,259.23,421.599,257.44,419.39,257.44z M110.724,115.44h205.333v8.09H110.724V115.44z M14.305,149.913
		c0.499-10.308,8.979-18.383,19.306-18.383h332.62c5.431,0,10.338,3.004,12.807,7.839l17.87,35.011
		c2.968,5.811,5.424,11.881,7.36,18.113c-20.789-4.268-42.032-6.437-63.25-6.437H12.541L14.305,149.913z M84.49,307.95
		c-15.946,0-28.92-12.974-28.92-28.92c0-4.777,1.168-9.432,3.388-13.59h13.928c-3.839,3.283-6.284,8.151-6.284,13.587
		c0,9.863,8.024,17.888,17.888,17.888s17.888-8.024,17.888-17.888c0-5.436-2.445-10.304-6.284-13.587h13.927
		c2.221,4.159,3.389,8.814,3.389,13.59C113.41,294.976,100.437,307.95,84.49,307.95z M94.378,279.027
		c0,5.452-4.436,9.888-9.888,9.888c-5.452,0-9.888-4.436-9.888-9.888c0-5.452,4.435-9.888,9.888-9.888
		C89.942,269.139,94.378,273.575,94.378,279.027z M340.724,307.948c-15.947,0-28.921-12.974-28.921-28.921
		c0-15.947,12.974-28.921,28.921-28.921c15.946,0,28.92,12.974,28.92,28.921C369.644,294.974,356.67,307.948,340.724,307.948z
		 M409.48,275.03h-32.057c-2-18.484-17.693-32.923-36.7-32.923c-19.008,0-34.701,14.439-36.701,32.923H132.446l-2.046-5.774
		c-2.501-7.067-9.221-11.815-16.721-11.815H54.43c-7.5,0-14.219,4.748-16.72,11.814l-2.046,5.776H8.2l3.951-80.974h328.867
		c22.018,0,44.066,2.395,65.576,7.108c1.9,8.349,2.887,16.905,2.887,25.467v30.81h-16.757c-2.209,0-4,1.791-4,4c0,2.209,1.791,4,4,4
		h16.757V275.03z"/>
	<path d="M253.39,202.773h-16.666c-2.209,0-4,1.791-4,4c0,2.209,1.791,4,4,4h16.666c2.209,0,4-1.791,4-4
		C257.39,204.564,255.599,202.773,253.39,202.773z"/>
	<path d="M326.724,203.44h-16.667c-2.209,0-4,1.791-4,4c0,2.209,1.791,4,4,4h16.667c2.209,0,4-1.791,4-4
		C330.724,205.23,328.933,203.44,326.724,203.44z"/>
	<path d="M72.724,200.44h-28c-2.209,0-4,1.791-4,4c0,2.209,1.791,4,4,4h28c2.209,0,4-1.791,4-4
		C76.724,202.23,74.933,200.44,72.724,200.44z"/>
	<path d="M72.724,214.54h-28c-2.209,0-4,1.791-4,4c0,2.209,1.791,4,4,4h28c2.209,0,4-1.791,4-4
		C76.724,216.33,74.933,214.54,72.724,214.54z"/>
	<path d="M72.724,228.64h-28c-2.209,0-4,1.791-4,4c0,2.209,1.791,4,4,4h28c2.209,0,4-1.791,4-4
		C76.724,230.431,74.933,228.64,72.724,228.64z"/>
</g>
<g>
</g>
<g>
</g>
<g>
</g>
<g>
</g>
<g>
</g>
<g>
</g>
<g>
</g>
<g>
</g>
<g>
</g>
<g>
</g>
<g>
</g>
<g>
</g>
<g>
</g>
<g>
</g>
<g>
</g>
</svg>
