<?xml version="1.0" encoding="iso-8859-1"?>
<!-- Generator: Adobe Illustrator 18.0.0, SVG Export Plug-In . SVG Version: 6.00 Build 0)  -->
<!DOCTYPE svg PUBLIC "-//W3C//DTD SVG 1.1//EN" "http://www.w3.org/Graphics/SVG/1.1/DTD/svg11.dtd">
<svg version="1.1" id="Capa_1" xmlns="http://www.w3.org/2000/svg" xmlns:xlink="http://www.w3.org/1999/xlink" x="0px" y="0px"
	 viewBox="0 0 461.824 461.824" style="enable-background:new 0 0 461.824 461.824;" xml:space="preserve">
<g>
	<path d="M386.813,256.205c-18.967,0-34.397,15.431-34.397,34.398c0,18.967,15.431,34.398,34.397,34.398
		c18.967,0,34.397-15.431,34.397-34.398C421.21,271.635,405.78,256.205,386.813,256.205z M386.813,317
		c-14.556,0-26.397-11.842-26.397-26.398c0-14.556,11.842-26.398,26.397-26.398c14.556,0,26.397,11.842,26.397,26.398
		C413.21,305.158,401.369,317,386.813,317z"/>
	<path d="M386.813,275.596c-8.274,0-15.006,6.732-15.006,15.006c0,8.274,6.732,15.006,15.006,15.006
		c8.275,0,15.006-6.732,15.006-15.006C401.819,282.328,395.087,275.596,386.813,275.596z M386.813,297.608
		c-3.863,0-7.006-3.143-7.006-7.006c0-3.863,3.143-7.006,7.006-7.006c3.863,0,7.006,3.143,7.006,7.006
		C393.819,294.465,390.676,297.608,386.813,297.608z"/>
	<path d="M109.915,275.596c-8.274,0-15.006,6.732-15.006,15.006c0,8.274,6.731,15.006,15.006,15.006s15.006-6.732,15.006-15.006
		C124.921,282.328,118.189,275.596,109.915,275.596z M109.915,297.608c-3.863,0-7.006-3.143-7.006-7.006
		c0-3.863,3.143-7.006,7.006-7.006c3.863,0,7.006,3.143,7.006,7.006C116.921,294.465,113.778,297.608,109.915,297.608z"/>
	<path d="M144.385,290.599c0.309,1.943,1.984,3.373,3.951,3.373h197.412c2.209,0,4-1.791,4-4c0-20.279,16.498-36.777,36.776-36.777
		c20.279,0,36.777,16.498,36.777,36.777c0,2.209,1.791,4,4,4h18.447c2.209,0,4-1.791,4-4v-12.505h8.076c2.209,0,4-1.791,4-4
		c0-2.209-1.791-4-4-4h-8.076v-35.728c0-10.603-7.581-19.628-18.025-21.46c-17.166-3.01-53.425-8.382-103.402-10.54
		c-2.43-0.105-4.659-1.279-6.115-3.222l-30.558-40.743l7.149-13.504c0.587-1.109,0.62-2.429,0.088-3.566
		c-0.532-1.137-1.566-1.958-2.793-2.218c-28.179-5.978-42.871,5.734-47.488,10.471c-26.526-3.474-62.641-7.162-96.413-7.162
		c-34.762,0-61.001,3.876-77.988,11.52c-0.049,0.022-0.099,0.046-0.147,0.07c-12.19,6.095-27.016,27.026-36.351,51.199
		c-5.244,2.905-21.279,14.013-22.168,41.571c-0.301,9.325-0.417,17.061-0.434,23.313H4c-2.209,0-4,1.791-4,4c0,2.209,1.791,4,4,4
		h11.137c0.104,8.393,0.385,12.486,0.406,12.79c0.149,2.093,1.891,3.715,3.99,3.715h51.781c1.967,0,3.642-1.43,3.951-3.373
		l0.25-0.001c0,18.968,15.432,34.4,34.4,34.4s34.4-15.432,34.4-34.4L144.385,290.599z M436.011,236.091
		c2.071,0.309,3.982,0.646,5.737,1.011v17.534c-0.638-0.393-1.295-0.906-1.92-1.587C437.67,250.702,435.409,245.879,436.011,236.091
		z M289.152,145.391l-4.721,8.917c-4.682-0.799-13.457-2.239-24.947-3.868C265.029,146.99,274.587,143.418,289.152,145.391z
		 M64.92,172.105l3.628,1.664c3.501,1.603,5.045,5.755,3.442,9.256l-8.808,19.223c-0.777,1.697-2.167,2.99-3.915,3.64
		c-1.747,0.65-3.645,0.58-5.341-0.198l-6.771-3.103C52.163,190.897,58.568,180.03,64.92,172.105z M109.915,316.998
		c-14.557,0-26.4-11.843-26.4-26.4c0-11.126,6.959-21.002,17.364-24.781h18.071c10.406,3.779,17.364,13.655,17.364,24.781
		C136.315,305.154,124.472,316.998,109.915,316.998z M76.644,281.913l2.271-14.303c0.166-1.039,1.049-1.793,2.101-1.793h5.068
		C81.541,270.183,78.252,275.741,76.644,281.913z M133.747,265.816h4.887c1.052,0,1.935,0.754,2.1,1.793l2.04,12.848
		C141.051,274.866,137.929,269.837,133.747,265.816z M99.759,208.302c-1.618,0-3.056-0.774-3.946-2.125
		c-0.89-1.35-1.036-2.978-0.398-4.464l9.996-23.323c0.746-1.74,2.451-2.865,4.345-2.865h23.835l-24.113,32.777H99.759z
		 M143.521,175.525h0.6l3.761,32.777h-28.475L143.521,175.525z M152.174,175.525h41.878l-24.113,32.777h-14.003L152.174,175.525z
		 M277.95,181.615l11.948,17.304c1.287,1.864,1.427,4.174,0.374,6.18c-1.053,2.005-3.033,3.203-5.298,3.203h-40.743l24.012-32.639
		C272.143,176.193,275.681,178.329,277.95,181.615z M291.132,285.972h-61.773v-69.67h55.616c2.181,0,4.276-0.508,6.157-1.429
		V285.972z M234.299,208.302h-4.941v-32.777h29.054L234.299,208.302z M221.359,208.302h-22.052l22.052-29.976V208.302z
		 M189.375,208.302h-9.504l24.113-32.777h9.504L189.375,208.302z M221.359,216.302v69.67h-56.51l-7.995-69.67H221.359z
		 M441.747,285.972h-10.624c-2.029-22.824-21.257-40.777-44.6-40.777s-42.57,17.953-44.599,40.777h-42.793
		c0,0-0.073-83.517-0.176-83.872c-0.042-2.711-0.869-5.401-2.474-7.726l-11.948-17.305c-4.097-5.934-10.831-9.489-18.035-9.539
		c-0.01,0-156.744-0.005-156.744-0.005c-5.098,0-9.69,3.028-11.698,7.714l-9.996,23.323c-1.69,3.944-1.289,8.437,1.073,12.02
		c2.362,3.582,6.334,5.721,10.625,5.721h49.042l7.995,69.67h-5.045l-3.114-19.617c-0.786-4.948-4.992-8.538-10.002-8.538h-57.62
		c-5.009,0-9.215,3.591-10.001,8.539l-3.114,19.617H23.346c-0.219-5.867-0.484-18.792,0.185-39.561
		c0.87-26.98,18.221-34.97,18.937-35.287c0.609-0.261,1.122-0.678,1.528-1.185l6.598,3.023c1.991,0.911,4.109,1.369,6.234,1.369
		c1.761,0,3.527-0.315,5.226-0.947c3.75-1.394,6.733-4.167,8.399-7.807l8.808-19.223c1.667-3.641,1.817-7.711,0.423-11.461
		c-1.394-3.75-4.168-6.733-7.806-8.399l-1.35-0.619c2.45-2.369,4.825-4.184,7.032-5.301c15.952-7.154,41.058-10.781,74.628-10.781
		c56.818,0,132.959,12.865,133.17,12.929l30.445,40.594c2.901,3.868,7.337,6.206,12.171,6.415
		c49.522,2.138,85.391,7.451,102.365,10.428c4.893,0.858,8.787,4.214,10.483,8.621c-4.752-0.868-9.149-1.309-9.724-1.372
		c-14.329-1.584-34.009-2.17-58.812-1.743c-14.578,0.252-31.095,0.855-49.093,1.795c-2.206,0.115-3.901,1.997-3.786,4.203
		c0.115,2.206,2.004,3.9,4.203,3.786c17.906-0.935,34.329-1.536,48.814-1.785c23.331-0.403,41.938,0.087,55.634,1.454
		c-0.716,10.464,1.25,18.31,5.879,23.345c2.606,2.834,5.508,4.19,7.81,4.835v6.168h-1.826c-2.209,0-4,1.791-4,4c0,2.209,1.791,4,4,4
		h1.826V285.972z"/>
	<path d="M254.485,228.69h-14.563c-2.209,0-4,1.791-4,4s1.791,4,4,4h14.563c2.209,0,4-1.791,4-4S256.694,228.69,254.485,228.69z"/>
	<path d="M195.262,236.69h14.564c2.209,0,4-1.791,4-4s-1.791-4-4-4h-14.564c-2.209,0-4,1.791-4,4S193.053,236.69,195.262,236.69z"/>
	<rect x="70.353" y="224.771" width="12.011" height="12.012"/>
	<rect x="82.365" y="236.782" width="12.012" height="12.012"/>
	<rect x="94.376" y="224.771" width="12.012" height="12.012"/>
	<rect x="106.388" y="236.782" width="12.012" height="12.012"/>
	<rect x="118.399" y="224.771" width="12.012" height="12.012"/>
	<path d="M50.402,227.27h-8.5c-1.905,0-3.545,1.343-3.921,3.21l-8.5,42.196c-0.436,2.166,0.966,4.275,3.131,4.711
		c0.267,0.054,0.532,0.08,0.794,0.08c1.865,0,3.534-1.312,3.917-3.211l7.853-38.986h5.226c2.209,0,4-1.791,4-4
		S52.611,227.27,50.402,227.27z"/>
</g>
<g>
</g>
<g>
</g>
<g>
</g>
<g>
</g>
<g>
</g>
<g>
</g>
<g>
</g>
<g>
</g>
<g>
</g>
<g>
</g>
<g>
</g>
<g>
</g>
<g>
</g>
<g>
</g>
<g>
</g>
</svg>
