<?xml version="1.0" encoding="utf-8"?>
<!-- Generator: Adobe Illustrator 17.0.0, SVG Export Plug-In . SVG Version: 6.00 Build 0)  -->
<!DOCTYPE svg PUBLIC "-//W3C//DTD SVG 1.1//EN" "http://www.w3.org/Graphics/SVG/1.1/DTD/svg11.dtd">
<svg version="1.1" id="Capa_1" xmlns="http://www.w3.org/2000/svg" xmlns:xlink="http://www.w3.org/1999/xlink" x="0px" y="0px"
	 width="64px" height="64px" viewBox="0 0 64 64" enable-background="new 0 0 64 64" xml:space="preserve">
<path d="M8.073,39.397l6.512,1.089c0.542,0.095,1.059-0.276,1.151-0.821c0.091-0.545-0.276-1.061-0.821-1.151l-9.154-1.531
	c-0.418-0.065-0.823,0.125-1.031,0.487c-0.209,0.361-0.171,0.814,0.096,1.136l4.379,5.298c0.197,0.239,0.483,0.363,0.771,0.363
	c0.224,0,0.449-0.075,0.636-0.229c0.426-0.352,0.486-0.981,0.134-1.407L8.073,39.397z"/>
<path d="M58.373,17.986c-1.899-1.073-6.09,0.124-9.07,1.799l-9.699,5.449l-22.772-4.789c-0.414-0.089-0.832,0.093-1.055,0.449
	c-0.222,0.356-0.198,0.813,0.061,1.145l9.742,12.482L11.605,44.619c-0.447,0.323-0.548,0.948-0.225,1.396
	c0.195,0.271,0.501,0.414,0.812,0.414c0.07,0,0.142-0.008,0.212-0.022c0.068,0.015,0.139,0.022,0.212,0.022h10.173
	c0.198,0,0.392-0.06,0.558-0.17l32.135-21.579c2.511-1.686,3.977-3.563,3.921-5.024C59.375,18.94,59.01,18.348,58.373,17.986z
	 M54.366,23.021L22.484,44.43h-7.202l12.31-8.895c0.22-0.159,0.366-0.401,0.404-0.67c0.038-0.269-0.035-0.542-0.202-0.756
	l-8.697-11.144l20.463,4.303c0.239,0.051,0.483,0.012,0.696-0.107l10.027-5.633c3.15-1.771,6.313-2.25,7.119-1.814
	C57.465,19.998,56.84,21.36,54.366,23.021z"/>
</svg>
