<?xml version="1.0" encoding="utf-8"?>
<!-- Generator: Adobe Illustrator 18.1.1, SVG Export Plug-In . SVG Version: 6.00 Build 0)  -->
<svg version="1.1" id="Icons" xmlns="http://www.w3.org/2000/svg" xmlns:xlink="http://www.w3.org/1999/xlink" x="0px" y="0px"
	 viewBox="0 0 144 144" enable-background="new 0 0 144 144" xml:space="preserve">
<g id="Travel_Planning">
</g>
<g id="Globe_1_">
</g>
<g id="Map">
</g>
<g id="Flight_Date">
</g>
<g id="Alarm_Clock">
</g>
<g id="Small_Suitcase">
</g>
<g id="Backpack">
</g>
<g id="Large_Suitcase">
</g>
<g id="Toiletries">
</g>
<g id="Camera">
</g>
<g id="Phone">
</g>
<g id="Laptop">
</g>
<g id="Passport">
</g>
<g id="Taxi">
	<g id="XMLID_695_">
		<circle id="XMLID_380_" opacity="0.1" cx="38" cy="96" r="10"/>
		<circle id="XMLID_408_" opacity="0.1" cx="108" cy="96" r="10"/>
		<path id="XMLID_443_" opacity="0.1" d="M79,48c-12.375,0-20.337,0-24,0c-0.719,0-1.402,0.024-2.061,0.064
			C44.687,58.995,44,66,44,66h59C103,66,91.375,48,79,48z"/>
		
			<circle id="XMLID_578_" fill="none" stroke="#000000" stroke-width="4" stroke-linecap="round" stroke-linejoin="round" stroke-miterlimit="10" cx="38" cy="96" r="10"/>
		
			<circle id="XMLID_592_" fill="none" stroke="#000000" stroke-width="4" stroke-linecap="round" stroke-linejoin="round" stroke-miterlimit="10" cx="108" cy="96" r="10"/>
		
			<line id="XMLID_594_" fill="none" stroke="#000000" stroke-width="4" stroke-linecap="round" stroke-linejoin="round" stroke-miterlimit="10" x1="98" y1="96" x2="48" y2="96"/>
		
			<path id="XMLID_353_" fill="none" stroke="#000000" stroke-width="4" stroke-linecap="round" stroke-linejoin="round" stroke-miterlimit="10" d="
			M77,48.008l-0.708-8.295c0-0.911-0.603-1.713-1.34-1.713H57.048c-0.737,0-1.34,0.802-1.34,1.713L55,47.98"/>
		
			<path id="XMLID_9_" fill="none" stroke="#000000" stroke-width="4" stroke-linecap="round" stroke-linejoin="round" stroke-miterlimit="10" d="
			M28,96h-6c-6.6,0-12-5.4-12-12v-8c0-5.5,4.5-10,10-10c0,0,3.875,0,6,0c13.5,0,7.75-18,29-18c3.663,0,11.625,0,24,0s24,18,24,18
			l13,3c16,4,18,2.875,18,15v0c0,5.625-4.875,12-12,12h-4"/>
		
			<line id="XMLID_6_" fill="none" stroke="#000000" stroke-width="4" stroke-linecap="round" stroke-linejoin="round" stroke-miterlimit="10" x1="10" y1="82" x2="18" y2="82"/>
		
			<line id="XMLID_5_" fill="none" stroke="#000000" stroke-width="4" stroke-linecap="round" stroke-linejoin="round" stroke-miterlimit="10" x1="126" y1="82" x2="133" y2="82"/>
		
			<path id="XMLID_7_" fill="none" stroke="#000000" stroke-width="4" stroke-linecap="round" stroke-linejoin="round" stroke-miterlimit="10" d="
			M103,66H44c0,0,0.687-7.039,9-18.02"/>
		
			<line id="XMLID_10_" fill="none" stroke="#000000" stroke-width="4" stroke-linecap="round" stroke-linejoin="round" stroke-miterlimit="10" x1="68" y1="48" x2="68" y2="66"/>
		
			<path id="XMLID_486_" fill="none" stroke="#000000" stroke-width="4" stroke-linecap="round" stroke-linejoin="round" stroke-miterlimit="10" d="
			M49,80L49,80c-0.55,0-1-0.45-1-1l0,0c0-0.55,0.45-1,1-1l0,0c0.55,0,1,0.45,1,1l0,0C50,79.55,49.55,80,49,80z"/>
		
			<path id="XMLID_487_" fill="none" stroke="#000000" stroke-width="4" stroke-linecap="round" stroke-linejoin="round" stroke-miterlimit="10" d="
			M55,86L55,86c-0.55,0-1-0.45-1-1l0,0c0-0.55,0.45-1,1-1l0,0c0.55,0,1,0.45,1,1l0,0C56,85.55,55.55,86,55,86z"/>
		
			<path id="XMLID_489_" fill="none" stroke="#000000" stroke-width="4" stroke-linecap="round" stroke-linejoin="round" stroke-miterlimit="10" d="
			M61,80L61,80c-0.55,0-1-0.45-1-1l0,0c0-0.55,0.45-1,1-1l0,0c0.55,0,1,0.45,1,1l0,0C62,79.55,61.55,80,61,80z"/>
		
			<path id="XMLID_488_" fill="none" stroke="#000000" stroke-width="4" stroke-linecap="round" stroke-linejoin="round" stroke-miterlimit="10" d="
			M67,86L67,86c-0.55,0-1-0.45-1-1l0,0c0-0.55,0.45-1,1-1l0,0c0.55,0,1,0.45,1,1l0,0C68,85.55,67.55,86,67,86z"/>
		
			<path id="XMLID_491_" fill="none" stroke="#000000" stroke-width="4" stroke-linecap="round" stroke-linejoin="round" stroke-miterlimit="10" d="
			M73,80L73,80c-0.55,0-1-0.45-1-1l0,0c0-0.55,0.45-1,1-1l0,0c0.55,0,1,0.45,1,1l0,0C74,79.55,73.55,80,73,80z"/>
		
			<path id="XMLID_490_" fill="none" stroke="#000000" stroke-width="4" stroke-linecap="round" stroke-linejoin="round" stroke-miterlimit="10" d="
			M79,86L79,86c-0.55,0-1-0.45-1-1l0,0c0-0.55,0.45-1,1-1l0,0c0.55,0,1,0.45,1,1l0,0C80,85.55,79.55,86,79,86z"/>
		
			<path id="XMLID_493_" fill="none" stroke="#000000" stroke-width="4" stroke-linecap="round" stroke-linejoin="round" stroke-miterlimit="10" d="
			M85,80L85,80c-0.55,0-1-0.45-1-1l0,0c0-0.55,0.45-1,1-1l0,0c0.55,0,1,0.45,1,1l0,0C86,79.55,85.55,80,85,80z"/>
		
			<path id="XMLID_492_" fill="none" stroke="#000000" stroke-width="4" stroke-linecap="round" stroke-linejoin="round" stroke-miterlimit="10" d="
			M91,86L91,86c-0.55,0-1-0.45-1-1l0,0c0-0.55,0.45-1,1-1l0,0c0.55,0,1,0.45,1,1l0,0C92,85.55,91.55,86,91,86z"/>
	</g>
</g>
<g id="Signs">
</g>
<g id="Airport">
</g>
<g id="Wind_Sock">
</g>
<g id="Check-In">
</g>
<g id="Ticket">
</g>
<g id="Wallet">
</g>
<g id="Tag">
</g>
<g id="Escalator">
</g>
<g id="Body_Scanner">
</g>
<g id="Walking_with_Suitcase">
</g>
<g id="Gate_Number">
</g>
<g id="Seats">
</g>
<g id="Seat_Belt">
</g>
<g id="Take_Off">
</g>
<g id="Plane_Window">
</g>
<g id="International_Travel">
</g>
<g id="Meal">
</g>
<g id="Landing">
</g>
<g id="Shuttle_Bus">
</g>
<g id="Hotel">
</g>
<g id="Hotel_Check-In">
</g>
<g id="Valet_1_">
</g>
<g id="Baggage_Trolley">
</g>
<g id="Door_Hanger">
</g>
<g id="Hotel_Room">
</g>
<g id="Shower">
</g>
</svg>
