<?xml version="1.0" encoding="iso-8859-1"?>
<!-- Generator: Adobe Illustrator 18.0.0, SVG Export Plug-In . SVG Version: 6.00 Build 0)  -->
<!DOCTYPE svg PUBLIC "-//W3C//DTD SVG 1.1//EN" "http://www.w3.org/Graphics/SVG/1.1/DTD/svg11.dtd">
<svg version="1.1" id="Capa_1" xmlns="http://www.w3.org/2000/svg" xmlns:xlink="http://www.w3.org/1999/xlink" x="0px" y="0px"
	 viewBox="0 0 405.825 405.825" style="enable-background:new 0 0 405.825 405.825;" xml:space="preserve">
<g>
	<path d="M37.528,306.272c0.781,0.781,1.805,1.171,2.829,1.171s2.047-0.391,2.829-1.171l29.09-29.09
		c1.562-1.563,1.562-4.095,0-5.657c-1.563-1.561-4.095-1.561-5.657,0l-29.09,29.09C35.966,302.177,35.966,304.709,37.528,306.272z"
		/>
	<path d="M49.254,317.998c0.781,0.781,1.805,1.171,2.829,1.171c1.024,0,2.047-0.391,2.829-1.171l29.09-29.09
		c1.562-1.563,1.562-4.095,0-5.657c-1.563-1.561-4.095-1.561-5.657,0l-29.09,29.09C47.692,313.903,47.692,316.435,49.254,317.998z"
		/>
	<path d="M95.728,294.977c-1.563-1.561-4.095-1.561-5.657,0l-29.09,29.09c-1.562,1.563-1.562,4.095,0,5.657
		c0.781,0.781,1.805,1.171,2.829,1.171c1.024,0,2.047-0.391,2.829-1.171l29.09-29.09C97.29,299.071,97.29,296.539,95.728,294.977z"
		/>
	<path d="M101.797,306.703l-29.09,29.09c-1.562,1.563-1.562,4.095,0,5.657c0.781,0.781,1.805,1.171,2.829,1.171
		s2.047-0.391,2.829-1.171l29.09-29.09c1.562-1.563,1.562-4.095,0-5.657C105.892,305.141,103.36,305.141,101.797,306.703z"/>
	<path d="M85.007,262.793c1.023,0,2.047-0.391,2.829-1.171l110.949-110.949c1.562-1.563,1.562-4.095,0-5.657
		c-1.562-1.561-4.094-1.561-5.657,0L82.178,255.964c-1.562,1.563-1.562,4.095,0,5.657C82.959,262.402,83.983,262.793,85.007,262.793
		z"/>
	<path d="M96.733,274.519c1.024,0,2.047-0.391,2.829-1.171l64.27-64.269c1.562-1.563,1.562-4.095,0-5.657
		c-1.563-1.561-4.095-1.561-5.657,0l-64.27,64.27c-1.562,1.563-1.562,4.095,0,5.657C94.685,274.129,95.709,274.519,96.733,274.519z"
		/>
	<path d="M117.357,291.143c-1.562,1.563-1.562,4.095,0,5.657c0.781,0.781,1.805,1.171,2.829,1.171c1.023,0,2.047-0.391,2.829-1.171
		l81.183-81.182c1.562-1.563,1.562-4.095,0-5.657c-1.561-1.561-4.094-1.561-5.657,0L117.357,291.143z"/>
	<path d="M403.699,203.231l-50.2-100.284c-2.408-4.816-6.548-8.405-11.66-10.106c-5.11-1.7-10.578-1.308-15.399,1.104l-5.492,2.752
		l-60.222-60.222c-3.947-3.947-9.194-6.121-14.776-6.121c-0.001,0,0,0-0.001,0c-5.581,0-10.829,2.174-14.776,6.12L6.111,261.538
		c-8.148,8.148-8.148,21.405,0,29.553l78.259,78.259c3.947,3.947,9.195,6.121,14.776,6.121c4.018,0,7.194-1.351,8.139-1.819
		c22.18-10.988,287.407-143.365,287.407-143.365C404.627,225.305,408.668,213.169,403.699,203.231z M211.328,108.849l55.229-55.229
		l56.948,56.947l-55.23,55.23L211.328,108.849z M262.618,171.454L80.203,353.869l-56.948-56.948L205.67,114.506L262.618,171.454z
		 M329.162,116.224l4.167,4.167c2.436,2.436,3.777,5.674,3.777,9.119c0,3.445-1.342,6.684-3.778,9.119l-46.111,46.111
		l-13.285-13.285L329.162,116.224z M292.315,190.957l20.68,41.312l-124.12,62.127L292.315,190.957z M170.963,312.309l145.614-72.886
		l8.394,16.768l-195.715,97.826L170.963,312.309z M298.277,184.995l40.709-40.709c3.947-3.947,6.121-9.195,6.121-14.776
		c0-1.095-0.108-2.172-0.272-3.234l9.111-4.567l36.054,72.025l-69.852,34.956L298.277,184.995z M330.023,101.098
		c2.908-1.455,6.207-1.692,9.291-0.666c3.082,1.025,5.578,3.188,7.03,6.093l4.02,8.03l-8.286,4.153
		c-0.864-1.424-1.884-2.766-3.093-3.974l-12.076-12.076L330.023,101.098z M236.831,42.132c2.436-2.436,5.674-3.777,9.119-3.777
		c3.445,0,6.683,1.341,9.119,3.777l5.831,5.831l-55.229,55.229l-14.95-14.95L236.831,42.132z M11.768,267.195L185.064,93.9
		l14.949,14.95L17.598,291.264l-5.831-5.831C6.739,280.405,6.739,272.224,11.768,267.195z M90.027,363.692l-4.166-4.166
		l182.415-182.415l13.285,13.285L108.265,363.692c-2.436,2.436-5.674,3.778-9.119,3.778
		C95.701,367.47,92.462,366.129,90.027,363.692z M391.108,223.133l-58.986,29.483l-8.395-16.773l69.852-34.956l2.965,5.922
		C399.542,212.805,397.103,220.129,391.108,223.133z"/>
</g>
<g>
</g>
<g>
</g>
<g>
</g>
<g>
</g>
<g>
</g>
<g>
</g>
<g>
</g>
<g>
</g>
<g>
</g>
<g>
</g>
<g>
</g>
<g>
</g>
<g>
</g>
<g>
</g>
<g>
</g>
</svg>
