<?xml version="1.0" encoding="utf-8"?>
<svg version="1.1" id="Artwork" xmlns="http://www.w3.org/2000/svg" xmlns:xlink="http://www.w3.org/1999/xlink" x="0px" y="0px"
	 width="512px" height="512px" viewBox="0 0 512 512" enable-background="new 0 0 512 512" xml:space="preserve">
<g>
	<path d="M438.53,391.257V84.058c0-19.985-16.26-36.245-36.245-36.245h-41.988v-8.524c0-9.688-7.881-17.571-17.568-17.571h-164.08
		c-9.687,0-17.568,7.883-17.568,17.571v8.524h-41.988c-19.985,0-36.245,16.26-36.245,36.245v307.199
		c0,19.985,16.26,36.245,36.245,36.245h6.487l-37.493,45.116c-4.196,5.05-5.399,10.511-3.302,14.981
		c2.098,4.47,7.066,7.034,13.631,7.034h54.724c10.693,0,23.501-7.108,29.157-16.184l31.752-50.948h93.28l31.752,50.948
		c5.657,9.075,18.464,16.184,29.157,16.184h54.724c6.565,0,11.533-2.564,13.631-7.035s0.894-9.931-3.302-14.98l-37.493-45.116h6.487
		C422.27,427.502,438.53,411.242,438.53,391.257z M173.203,39.288c0-3.004,2.443-5.448,5.445-5.448h164.08
		c3.002,0,5.445,2.444,5.445,5.448v8.524h-174.97V39.288z M94.97,391.257V84.058c0-13.301,10.821-24.122,24.122-24.122h283.193
		c13.301,0,24.122,10.821,24.122,24.122v307.199c0,13.301-10.821,24.122-24.122,24.122H119.092
		C105.791,415.379,94.97,404.558,94.97,391.257z M172.008,472.038c-3.478,5.579-12.295,10.473-18.869,10.473H98.415
		c-1.042,0-1.789-0.113-2.279-0.238c0.218-0.457,0.608-1.104,1.274-1.906l43.932-52.864h58.422L172.008,472.038z M423.967,480.366
		c0.666,0.802,1.056,1.449,1.274,1.906c-0.491,0.125-1.237,0.238-2.279,0.238h-54.724c-6.574,0-15.392-4.894-18.869-10.473
		l-27.756-44.536h58.423L423.967,480.366z"/>
	<path d="M377.784,85.316H143.593c-13.413,0-24.326,10.912-24.326,24.325v141.854c0,13.413,10.913,24.326,24.326,24.326h234.191
		c13.413,0,24.326-10.913,24.326-24.326V109.642C402.109,96.229,391.197,85.316,377.784,85.316z M389.986,251.495
		c0,6.729-5.474,12.203-12.203,12.203H143.593c-6.729,0-12.203-5.475-12.203-12.203V109.642c0-6.729,5.474-12.202,12.203-12.202
		h234.191c6.729,0,12.203,5.474,12.203,12.202V251.495z"/>
	<path d="M177.508,310.226c-20.429,0-37.05,16.621-37.05,37.051s16.621,37.05,37.05,37.05c20.43,0,37.05-16.62,37.05-37.05
		S197.938,310.226,177.508,310.226z M177.508,372.203c-13.745,0-24.927-11.182-24.927-24.927s11.182-24.928,24.927-24.928
		c13.745,0,24.927,11.183,24.927,24.928S191.253,372.203,177.508,372.203z"/>
	<path d="M343.868,310.226c-20.429,0-37.05,16.621-37.05,37.051s16.621,37.05,37.05,37.05s37.05-16.62,37.05-37.05
		S364.297,310.226,343.868,310.226z M343.868,372.203c-13.745,0-24.927-11.182-24.927-24.927s11.182-24.928,24.927-24.928
		s24.927,11.183,24.927,24.928S357.613,372.203,343.868,372.203z"/>
</g>
</svg>
