<?xml version="1.0" encoding="utf-8"?>
<!-- Generator: Adobe Illustrator 18.1.1, SVG Export Plug-In . SVG Version: 6.00 Build 0)  -->
<svg version="1.1" id="Icons" xmlns="http://www.w3.org/2000/svg" xmlns:xlink="http://www.w3.org/1999/xlink" x="0px" y="0px"
	 viewBox="0 0 144 144" enable-background="new 0 0 144 144" xml:space="preserve">
<g id="Travel_Planning">
</g>
<g id="Globe_1_">
</g>
<g id="Map">
</g>
<g id="Flight_Date">
</g>
<g id="Alarm_Clock">
</g>
<g id="Small_Suitcase">
</g>
<g id="Backpack">
</g>
<g id="Large_Suitcase">
</g>
<g id="Toiletries">
</g>
<g id="Camera">
	<g id="XMLID_344_">
		<circle id="XMLID_719_" opacity="0.1" cx="72" cy="89" r="13"/>
		<path id="XMLID_709_" opacity="0.1" d="M84.294,106c-3.458,2.506-7.697,4-12.294,4s-8.836-1.494-12.294-4H28v8
			c0,3.314,2.686,6,6,6h76c3.314,0,6-2.686,6-6v-8H84.294z"/>
		
			<path id="XMLID_621_" fill="none" stroke="#000000" stroke-width="4" stroke-linecap="round" stroke-linejoin="round" stroke-miterlimit="10" d="
			M21.7,90c-22.988-11.512-5.116-26.209-4.523-39.042c1.164-25.194,35.186-34.691,58.89-20.022
			c26.201,16.214,41.458,4.896,52.901,23.025c6.777,10.737,8.651,32.368-6.904,35.153"/>
		
			<path id="XMLID_718_" fill="none" stroke="#000000" stroke-width="4" stroke-linecap="round" stroke-linejoin="round" stroke-miterlimit="10" d="
			M110,120H34c-3.314,0-6-2.686-6-6V64c0-3.3,2.7-6,6-6h76c3.3,0,6,2.7,6,6v50C116,117.314,113.314,120,110,120z"/>
		
			<polyline id="XMLID_717_" fill="none" stroke="#000000" stroke-width="4" stroke-linecap="round" stroke-linejoin="round" stroke-miterlimit="10" points="
			116,95 122,95 122,85 116,85 		"/>
		
			<polyline id="XMLID_716_" fill="none" stroke="#000000" stroke-width="4" stroke-linecap="round" stroke-linejoin="round" stroke-miterlimit="10" points="
			28,95 22,95 22,85 28,85 		"/>
		
			<polyline id="XMLID_715_" fill="none" stroke="#000000" stroke-width="4" stroke-linecap="round" stroke-linejoin="round" stroke-miterlimit="10" points="
			56,58 56,52 40,52 40,58 		"/>
		
			<line id="XMLID_714_" fill="none" stroke="#000000" stroke-width="4" stroke-linecap="round" stroke-linejoin="round" stroke-miterlimit="10" x1="28" y1="106" x2="59" y2="106"/>
		
			<line id="XMLID_713_" fill="none" stroke="#000000" stroke-width="4" stroke-linecap="round" stroke-linejoin="round" stroke-miterlimit="10" x1="85" y1="106" x2="116" y2="106"/>
		
			<circle id="XMLID_712_" fill="none" stroke="#000000" stroke-width="4" stroke-linecap="round" stroke-linejoin="round" stroke-miterlimit="10" cx="72" cy="89" r="21"/>
		
			<circle id="XMLID_711_" fill="none" stroke="#000000" stroke-width="4" stroke-linecap="round" stroke-linejoin="round" stroke-miterlimit="10" cx="72" cy="89" r="13"/>
		
			<circle id="XMLID_710_" fill="none" stroke="#000000" stroke-width="4" stroke-linecap="round" stroke-linejoin="round" stroke-miterlimit="10" cx="101" cy="73" r="4"/>
	</g>
</g>
<g id="Phone">
</g>
<g id="Laptop">
</g>
<g id="Passport">
</g>
<g id="Taxi">
</g>
<g id="Signs">
</g>
<g id="Airport">
</g>
<g id="Wind_Sock">
</g>
<g id="Check-In">
</g>
<g id="Ticket">
</g>
<g id="Wallet">
</g>
<g id="Tag">
</g>
<g id="Escalator">
</g>
<g id="Body_Scanner">
</g>
<g id="Walking_with_Suitcase">
</g>
<g id="Gate_Number">
</g>
<g id="Seats">
</g>
<g id="Seat_Belt">
</g>
<g id="Take_Off">
</g>
<g id="Plane_Window">
</g>
<g id="International_Travel">
</g>
<g id="Meal">
</g>
<g id="Landing">
</g>
<g id="Shuttle_Bus">
</g>
<g id="Hotel">
</g>
<g id="Hotel_Check-In">
</g>
<g id="Valet_1_">
</g>
<g id="Baggage_Trolley">
</g>
<g id="Door_Hanger">
</g>
<g id="Hotel_Room">
</g>
<g id="Shower">
</g>
</svg>
