<?xml version="1.0" encoding="utf-8"?>
<!-- Generator: Adobe Illustrator 18.1.1, SVG Export Plug-In . SVG Version: 6.00 Build 0)  -->
<svg version="1.1" id="Icons" xmlns="http://www.w3.org/2000/svg" xmlns:xlink="http://www.w3.org/1999/xlink" x="0px" y="0px"
	 viewBox="0 0 144 144" enable-background="new 0 0 144 144" xml:space="preserve">
<g id="Travel_Planning">
</g>
<g id="Globe_1_">
</g>
<g id="Map">
</g>
<g id="Flight_Date">
</g>
<g id="Alarm_Clock">
</g>
<g id="Small_Suitcase">
</g>
<g id="Backpack">
</g>
<g id="Large_Suitcase">
</g>
<g id="Toiletries">
</g>
<g id="Camera">
</g>
<g id="Phone">
</g>
<g id="Laptop">
</g>
<g id="Passport">
</g>
<g id="Taxi">
</g>
<g id="Signs">
</g>
<g id="Airport">
</g>
<g id="Wind_Sock">
</g>
<g id="Check-In">
</g>
<g id="Ticket">
</g>
<g id="Wallet">
</g>
<g id="Tag">
</g>
<g id="Escalator">
</g>
<g id="Body_Scanner">
</g>
<g id="Walking_with_Suitcase">
</g>
<g id="Gate_Number">
</g>
<g id="Seats">
</g>
<g id="Seat_Belt">
</g>
<g id="Take_Off">
</g>
<g id="Plane_Window">
</g>
<g id="International_Travel">
</g>
<g id="Meal">
	<g id="XMLID_1049_">
		<path id="XMLID_509_" opacity="0.1" d="M18.667,98C17.75,98,17,98,17,98c0,4,6.25,8,13,8h84c6.75,0,13-4,13-8c0,0-0.75,0-1.667,0
			H72H18.667z"/>
		<path id="XMLID_554_" opacity="0.1" d="M121,82c-11.719,7-12.969-5.155-22-0.874l-0.306-0.044L100,98h20l1.231-16H121z"/>

			<line id="XMLID_769_" fill="none"  stroke-width="4" stroke-linecap="round" stroke-linejoin="round" stroke-miterlimit="10" x1="10" y1="98" x2="134" y2="98"/>

			<circle id="XMLID_373_" fill="none"  stroke-width="4" stroke-linecap="round" stroke-linejoin="round" stroke-miterlimit="10" cx="56" cy="64" r="4"/>

			<path id="XMLID_379_" fill="none"  stroke-width="4" stroke-linecap="round" stroke-linejoin="round" stroke-miterlimit="10" d="
			M18.667,98C17.75,98,17,98,17,98c0,4,4.25,8,11,8h87c6.75,0,12-4,12-8c0,0-0.75,0-1.667,0H72H18.667z"/>

			<polygon id="XMLID_381_" fill="none"  stroke-width="4" stroke-linecap="round" stroke-linejoin="round" stroke-miterlimit="10" points="
			122,72 98,72 100,98 120,98 		"/>

			<path id="XMLID_387_" fill="none"  stroke-width="4" stroke-linecap="round" stroke-linejoin="round" stroke-miterlimit="10" d="
			M99,80.995c9.031-4.281,10.281,7.438,22,1"/>

			<path id="XMLID_386_" fill="none"  stroke-width="4" stroke-linecap="round" stroke-linejoin="round" stroke-miterlimit="10" d="
			M33.878,63c-6.679-6.756,7.169-8.844,0-16"/>

			<path id="XMLID_372_" fill="none"  stroke-width="4" stroke-linecap="round" stroke-linejoin="round" stroke-miterlimit="10" d="
			M48.939,50c-3.339-4.222,3.584-5.528,0-10"/>

			<path id="XMLID_394_" fill="none"  stroke-width="4" stroke-linecap="round" stroke-linejoin="round" stroke-miterlimit="10" d="
			M65.869,54c-7.124-6.756,7.647-8.844,0-16"/>

			<path id="XMLID_393_" fill="none"  stroke-width="4" stroke-linecap="round" stroke-linejoin="round" stroke-miterlimit="10" d="
			M78.939,64c-3.339-4.222,3.584-5.528,0-10"/>

			<path id="XMLID_457_" fill="none"  stroke-width="4" stroke-linecap="round" stroke-linejoin="round" stroke-miterlimit="10" d="
			M89.763,98C87.801,81,73.438,68,56,68S24.199,81,22.237,98H89.763z"/>
	</g>
</g>
<g id="Landing">
</g>
<g id="Shuttle_Bus">
</g>
<g id="Hotel">
</g>
<g id="Hotel_Check-In">
</g>
<g id="Valet_1_">
</g>
<g id="Baggage_Trolley">
</g>
<g id="Door_Hanger">
</g>
<g id="Hotel_Room">
</g>
<g id="Shower">
</g>
</svg>
