<?xml version="1.0" encoding="UTF-8" standalone="no"?>
<svg width="32px" height="32px" viewBox="0 0 32 32" version="1.1" xmlns="http://www.w3.org/2000/svg" xmlns:xlink="http://www.w3.org/1999/xlink">
    <!-- Generator: Sketch 3.8.3 (29802) - http://www.bohemiancoding.com/sketch -->
    <title>files</title>
    <desc>Created with Sketch.</desc>
    <defs></defs>
    <g id="Page-1" stroke-width="1" fill="none" fill-rule="evenodd" stroke-linecap="round" stroke-linejoin="round">
        <g id="files" stroke-width="2">
            <g transform="translate(1.000000, 1.000000)">
                <path d="M25,29 C25,29.553 24.553,30 24,30 L6,30 C5.447,30 5,29.553 5,29 L5,7 C5,6.447 5.447,6 6,6 L24,6 C24.553,6 25,6.447 25,7 L25,29 L25,29 Z" id="Stroke-1"></path>
                <path d="M11,12 L14,12" id="Stroke-3"></path>
                <path d="M11,15 L19,15" id="Stroke-5"></path>
                <path d="M11,19 L19,19" id="Stroke-7"></path>
                <path d="M11,23 L19,23" id="Stroke-9"></path>
                <path d="M20,6 L20,1 C20,0.447 19.553,0 19,0 L1,0 C0.447,0 0,0.447 0,1 L0,23 C0,23 0,24 1,24 L2,24" id="Stroke-11"></path>
                <path d="M25,26 L29,26 C29.553,26 30,25.553 30,25 L30,3 C30,2.447 29.553,2 29,2 L23,2" id="Stroke-13"></path>
            </g>
        </g>
    </g>
</svg>