<?xml version="1.0" encoding="iso-8859-1"?>
<!-- Generator: Adobe Illustrator 18.1.1, SVG Export Plug-In . SVG Version: 6.00 Build 0)  -->
<svg version="1.1" id="Capa_1" xmlns="http://www.w3.org/2000/svg" xmlns:xlink="http://www.w3.org/1999/xlink" x="0px" y="0px"
	 viewBox="0 0 23.142 30.72" style="enable-background:new 0 0 23.142 30.72;" xml:space="preserve">
<g>
	<path style="fill-rule:evenodd;clip-rule:evenodd;fill:#050008;" d="M8.781,26.911c-0.265,0-0.481-0.215-0.481-0.48
		c0-0.265,0.215-0.48,0.481-0.48h5.58c0.265,0,0.48,0.215,0.48,0.48c0,0.265-0.215,0.48-0.48,0.48H8.781z"/>
	<path style="fill-rule:evenodd;clip-rule:evenodd;fill:#050008;" d="M9.401,28.816c-0.265,0-0.48-0.215-0.48-0.48
		c0-0.265,0.216-0.48,0.48-0.48h4.34c0.265,0,0.48,0.215,0.48,0.48c0,0.265-0.215,0.48-0.48,0.48H9.401z"/>
	<path style="fill-rule:evenodd;clip-rule:evenodd;fill:#050008;" d="M11.119,22.18c0,0.264-0.214,0.478-0.478,0.478
		c-0.264,0-0.478-0.214-0.478-0.478c-0.002-2.021-0.06-3.531-0.339-4.929c-0.276-1.382-0.77-2.663-1.647-4.243
		c-0.128-0.231-0.045-0.522,0.185-0.65c0.231-0.128,0.522-0.045,0.651,0.185c0.931,1.678,1.458,3.044,1.752,4.521
		C11.056,18.522,11.117,20.088,11.119,22.18z"/>
	<path style="fill-rule:evenodd;clip-rule:evenodd;fill:#050008;" d="M12.979,22.18c0,0.264-0.214,0.478-0.478,0.478
		c-0.264,0-0.478-0.214-0.478-0.478c0.002-2.092,0.063-3.657,0.354-5.116c0.294-1.477,0.821-2.843,1.752-4.521
		c0.128-0.231,0.42-0.314,0.65-0.185c0.231,0.128,0.313,0.42,0.185,0.65c-0.877,1.58-1.371,2.862-1.647,4.243
		C13.039,18.649,12.98,20.159,12.979,22.18z"/>
	<path style="fill-rule:evenodd;clip-rule:evenodd;fill:#050008;" d="M8.449,13.231c-0.252-0.08-0.39-0.35-0.31-0.602
		c0.081-0.252,0.35-0.39,0.602-0.31c0.334,0.108,0.623,0.253,0.89,0.387l0.026,0.014c0.417,0.21,0.764,0.374,1.022,0.164l0.59-0.481
		c0.205-0.166,0.507-0.135,0.673,0.07c0.166,0.205,0.135,0.507-0.07,0.673l-0.59,0.481c-0.735,0.598-1.336,0.307-2.06-0.056
		l-0.022-0.01C8.966,13.443,8.712,13.316,8.449,13.231z"/>
	<path style="fill-rule:evenodd;clip-rule:evenodd;fill:#050008;" d="M12.051,2.34c0,0.265-0.215,0.48-0.48,0.48
		c-0.265,0-0.48-0.215-0.48-0.48V0.48c0-0.265,0.215-0.48,0.48-0.48c0.265,0,0.48,0.215,0.48,0.48V2.34z"/>
	<path style="fill-rule:evenodd;clip-rule:evenodd;fill:#050008;" d="M14.401,12.319c0.252-0.081,0.522,0.058,0.602,0.31
		c0.081,0.252-0.058,0.522-0.31,0.602c-0.263,0.085-0.517,0.213-0.752,0.331l-0.022,0.01c-0.723,0.363-1.325,0.655-2.06,0.056
		l-0.59-0.481c-0.205-0.166-0.236-0.468-0.07-0.673c0.166-0.205,0.468-0.236,0.673-0.07l0.59,0.481
		c0.258,0.21,0.604,0.045,1.022-0.164l0.026-0.014C13.778,12.572,14.067,12.427,14.401,12.319z"/>
	<path style="fill-rule:evenodd;clip-rule:evenodd;fill:#050008;" d="M17.61,7.461c1.545,1.545,2.502,3.681,2.502,6.039
		c0,0.922-0.148,1.813-0.42,2.648c-0.281,0.863-0.698,1.668-1.223,2.386c-0.881,1.205-1.596,1.996-2.151,2.611
		c-0.999,1.105-1.437,1.589-1.437,3.205c0,0.265-0.215,0.48-0.48,0.48h-0.012h-2.797h-2.81c-0.265,0-0.481-0.215-0.481-0.48
		c0-1.6-0.447-2.089-1.439-3.176l-0.001-0.001L6.86,21.174c-0.561-0.614-1.283-1.405-2.186-2.64
		c-0.525-0.718-0.942-1.524-1.223-2.387c-0.272-0.834-0.42-1.726-0.42-2.647c0-1.154,0.231-2.258,0.649-3.266l0.009-0.019
		c0.434-1.04,1.066-1.976,1.845-2.754c0.784-0.784,1.725-1.418,2.773-1.852V5.608c1.008-0.418,2.112-0.649,3.266-0.649
		c1.152,0,2.255,0.231,3.264,0.649C15.883,6.042,16.826,6.677,17.61,7.461L17.61,7.461z M19.151,13.5c0-2.093-0.849-3.988-2.22-5.36
		c-0.701-0.701-1.536-1.265-2.46-1.647c-0.89-0.369-1.87-0.573-2.9-0.573c-1.029,0-2.009,0.204-2.898,0.573V6.492L8.671,6.493
		C7.747,6.875,6.913,7.439,6.212,8.14c-0.694,0.694-1.255,1.522-1.638,2.436l-0.01,0.026c-0.368,0.889-0.573,1.869-0.573,2.898
		c0,0.822,0.131,1.614,0.371,2.351c0.251,0.767,0.62,1.481,1.084,2.117c0.867,1.186,1.573,1.959,2.122,2.561L7.567,20.53
		c1.068,1.167,1.599,1.751,1.682,3.341h2.341h2.341c0.082-1.601,0.603-2.179,1.676-3.365c0.536-0.593,1.225-1.356,2.088-2.536
		c0.464-0.635,0.833-1.349,1.083-2.116C19.02,15.114,19.151,14.323,19.151,13.5z"/>
	<path style="fill-rule:evenodd;clip-rule:evenodd;fill:#050008;" d="M10.021,30.72c-0.265,0-0.48-0.215-0.48-0.48
		c0-0.265,0.215-0.48,0.48-0.48h3.1c0.265,0,0.48,0.215,0.48,0.48c0,0.265-0.215,0.48-0.48,0.48H10.021z"/>
	<path style="fill-rule:evenodd;clip-rule:evenodd;fill:#050008;" d="M17.46,4.045c-0.131,0.228-0.424,0.307-0.653,0.176
		c-0.228-0.131-0.307-0.424-0.176-0.653l0.93-1.611c0.131-0.228,0.424-0.307,0.653-0.176c0.229,0.131,0.307,0.424,0.176,0.653
		L17.46,4.045z"/>
	<path style="fill-rule:evenodd;clip-rule:evenodd;fill:#050008;" d="M6.51,3.569C6.641,3.797,6.563,4.09,6.334,4.221
		C6.106,4.352,5.813,4.273,5.682,4.045l-0.93-1.611C4.621,2.206,4.7,1.913,4.928,1.782C5.157,1.651,5.45,1.73,5.581,1.958
		L6.51,3.569z"/>
	<path style="fill-rule:evenodd;clip-rule:evenodd;fill:#050008;" d="M2.327,7.4c0.228,0.131,0.307,0.424,0.176,0.653
		C2.372,8.281,2.079,8.36,1.851,8.229L0.24,7.299C0.011,7.168-0.068,6.875,0.063,6.647C0.194,6.418,0.487,6.34,0.716,6.471
		L2.327,7.4z"/>
	<path style="fill-rule:evenodd;clip-rule:evenodd;fill:#050008;" d="M21.291,8.229c-0.229,0.131-0.522,0.052-0.653-0.176
		c-0.131-0.229-0.052-0.522,0.176-0.653l1.611-0.93c0.229-0.131,0.522-0.052,0.653,0.176c0.131,0.228,0.052,0.522-0.176,0.653
		L21.291,8.229z"/>
	<path style="fill-rule:evenodd;clip-rule:evenodd;fill:#050008;" d="M6.584,15.397c0.102,0.243-0.012,0.524-0.255,0.626
		c-0.243,0.102-0.524-0.012-0.626-0.255c-0.163-0.386-0.29-0.793-0.374-1.213c-0.083-0.415-0.128-0.839-0.128-1.265
		c0-0.265,0.216-0.48,0.48-0.48c0.265,0,0.48,0.216,0.48,0.48c0,0.375,0.037,0.736,0.106,1.078
		C6.338,14.724,6.446,15.07,6.584,15.397L6.584,15.397z M6.584,11.182c-0.102,0.243-0.383,0.357-0.626,0.255
		c-0.243-0.102-0.357-0.383-0.255-0.626c0.161-0.381,0.358-0.742,0.583-1.077l0.001-0.001L6.286,9.732
		c0.231-0.342,0.493-0.66,0.78-0.947c0.284-0.284,0.602-0.546,0.948-0.779L8.014,8.005c0.332-0.224,0.695-0.421,1.079-0.583
		c0.385-0.163,0.791-0.29,1.212-0.374c0.415-0.084,0.841-0.128,1.266-0.128c0.265,0,0.48,0.215,0.48,0.48
		c0,0.265-0.215,0.48-0.48,0.48c-0.376,0-0.738,0.037-1.079,0.105c-0.357,0.071-0.702,0.18-1.028,0.318
		C9.147,8.437,8.841,8.604,8.55,8.8L8.55,8.8L8.549,8.8c-0.283,0.19-0.553,0.414-0.803,0.664c-0.247,0.247-0.471,0.518-0.664,0.805
		l-0.001-0.001C6.886,10.557,6.719,10.863,6.584,11.182z"/>
</g>
<g>
</g>
<g>
</g>
<g>
</g>
<g>
</g>
<g>
</g>
<g>
</g>
<g>
</g>
<g>
</g>
<g>
</g>
<g>
</g>
<g>
</g>
<g>
</g>
<g>
</g>
<g>
</g>
<g>
</g>
</svg>
