<?xml version="1.0" encoding="utf-8"?>
<!-- Generator: Adobe Illustrator 18.1.1, SVG Export Plug-In . SVG Version: 6.00 Build 0)  -->
<svg version="1.1" id="Icons" xmlns="http://www.w3.org/2000/svg" xmlns:xlink="http://www.w3.org/1999/xlink" x="0px" y="0px"
	 viewBox="0 0 144 144" enable-background="new 0 0 144 144" xml:space="preserve">
<g id="Travel_Planning">
	<g id="XMLID_327_">
		<path id="XMLID_1255_" opacity="0.1" d="M78.17,79l5.596-3.224l3.445-23.589l7.131-4.111c1.338-0.771,4.559-5.578,3.418-7.548
			c-1.141-1.97-6.923-1.593-8.261-0.822l-7.131,4.111L60.18,35l-5.596,3.224l17.483,11.529l-8.712,5.021l-6.246-2.091L52,55.627
			l8.296,6.491l1.484,10.416l5.109-2.943l1.31-6.446l8.712-5.021L78.17,79z"/>
		
			<circle id="XMLID_1254_" fill="none" stroke="#000000" stroke-width="4" stroke-linecap="round" stroke-linejoin="round" stroke-miterlimit="10" cx="36" cy="99" r="10"/>
		
			<circle id="XMLID_1253_" fill="none" stroke="#000000" stroke-width="4" stroke-linecap="round" stroke-linejoin="round" stroke-miterlimit="10" cx="36" cy="99" r="10"/>
		
			<path id="XMLID_1252_" fill="none" stroke="#000000" stroke-width="4" stroke-linecap="round" stroke-linejoin="round" stroke-miterlimit="10" d="
			M78.17,79l5.596-3.224l3.445-23.589l7.131-4.111c1.338-0.771,4.559-5.578,3.418-7.548c-1.141-1.97-6.923-1.593-8.261-0.822
			l-7.131,4.111L60.18,35l-5.596,3.224l17.483,11.529l-8.712,5.021l-6.246-2.091L52,55.627l8.296,6.491l1.484,10.416l5.109-2.943
			l1.31-6.446l8.712-5.021L78.17,79z"/>
		<g id="XMLID_1251_">
			<path id="XMLID_34_" d="M96,18c6.339,0,11.517,4.918,11.957,11.145C108.627,29.059,109.306,29,110,29c8.837,0,16,7.163,16,16
				c0,5.972-3.278,11.171-8.128,13.92C118.584,60.115,119,61.507,119,63c0,3.593-2.369,6.632-5.63,7.643
				C114.995,72.271,116,74.518,116,77c0,4.971-4.029,9-9,9c-3.335,0-6.239-1.818-7.794-4.512c-0.026,0.012-0.052,0.025-0.078,0.037
				C99.686,82.908,100,84.416,100,86c0,6.627-5.373,12-12,12c-5.991,0-10.942-4.395-11.841-10.134C73.447,89.836,70.112,91,66.5,91
				c-8.975,0-16.261-7.17-16.479-16.092C47.894,76.824,45.088,78,42,78c-6.627,0-12-5.373-12-12c0-1.485,0.283-2.901,0.776-4.214
				C25.212,60.742,21,55.866,21,50c0-5.591,3.83-10.276,9.005-11.608C30.064,27.12,39.215,18,50.5,18
				c7.384,0,13.837,3.918,17.446,9.775C69.54,24.367,72.989,22,77,22c3.152,0,5.96,1.462,7.792,3.741C86.512,21.219,90.875,18,96,18
				 M96,14c-4.781,0-9.253,2.181-12.246,5.733C81.714,18.607,79.402,18,77,18c-3.358,0-6.551,1.224-9.038,3.329
				C63.411,16.669,57.187,14,50.5,14c-12.477,0-22.842,9.428-24.316,21.534C20.658,38.13,17,43.721,17,50
				c0,6.267,3.642,11.817,9.079,14.423C26.026,64.947,26,65.473,26,66c0,8.822,7.178,16,16,16c1.751,0,3.471-0.287,5.102-0.839
				C49.839,89.271,57.448,95,66.5,95c2.572,0,5.077-0.472,7.421-1.386C76.633,98.678,81.941,102,88,102
				c7.605,0,13.988-5.333,15.604-12.456C104.699,89.843,105.84,90,107,90c7.168,0,13-5.832,13-13c0-1.756-0.346-3.46-1.006-5.032
				c2.5-2.22,4.006-5.442,4.006-8.968c0-0.869-0.096-1.734-0.283-2.578C127.276,56.658,130,51.009,130,45
				c0-10.626-8.33-19.343-18.803-19.965C109.091,18.614,103.022,14,96,14L96,14z"/>
		</g>
		
			<circle id="XMLID_1250_" fill="none" stroke="#000000" stroke-width="4" stroke-linecap="round" stroke-linejoin="round" stroke-miterlimit="10" cx="24" cy="120" r="6"/>
	</g>
</g>
<g id="Globe_1_">
</g>
<g id="Map">
</g>
<g id="Flight_Date">
</g>
<g id="Alarm_Clock">
</g>
<g id="Small_Suitcase">
</g>
<g id="Backpack">
</g>
<g id="Large_Suitcase">
</g>
<g id="Toiletries">
</g>
<g id="Camera">
</g>
<g id="Phone">
</g>
<g id="Laptop">
</g>
<g id="Passport">
</g>
<g id="Taxi">
</g>
<g id="Signs">
</g>
<g id="Airport">
</g>
<g id="Wind_Sock">
</g>
<g id="Check-In">
</g>
<g id="Ticket">
</g>
<g id="Wallet">
</g>
<g id="Tag">
</g>
<g id="Escalator">
</g>
<g id="Body_Scanner">
</g>
<g id="Walking_with_Suitcase">
</g>
<g id="Gate_Number">
</g>
<g id="Seats">
</g>
<g id="Seat_Belt">
</g>
<g id="Take_Off">
</g>
<g id="Plane_Window">
</g>
<g id="International_Travel">
</g>
<g id="Meal">
</g>
<g id="Landing">
</g>
<g id="Shuttle_Bus">
</g>
<g id="Hotel">
</g>
<g id="Hotel_Check-In">
</g>
<g id="Valet_1_">
</g>
<g id="Baggage_Trolley">
</g>
<g id="Door_Hanger">
</g>
<g id="Hotel_Room">
</g>
<g id="Shower">
</g>
</svg>
