<?xml version="1.0" encoding="utf-8"?>
<!-- Generator: Adobe Illustrator 17.0.0, SVG Export Plug-In . SVG Version: 6.00 Build 0)  -->
<!DOCTYPE svg PUBLIC "-//W3C//DTD SVG 1.1//EN" "http://www.w3.org/Graphics/SVG/1.1/DTD/svg11.dtd">
<svg version="1.1" id="Capa_1" xmlns="http://www.w3.org/2000/svg" xmlns:xlink="http://www.w3.org/1999/xlink" x="0px" y="0px"
	 width="64px" height="64px" viewBox="0 0 64 64" enable-background="new 0 0 64 64" xml:space="preserve">
<path d="M31.667,13.236c0.552,0,1-0.447,1-1c0-0.553-0.448-1-1-1h-19.49c-0.552,0-1,0.447-1,1v37.777c0,0.553,0.448,1,1,1h36.427
	c0.552,0,1-0.447,1-1V12.236c0-0.553-0.448-1-1-1h-2.103c-0.552,0-1,0.447-1,1c0,0.553,0.448,1,1,1h1.103v35.777H13.177V13.236
	H31.667z"/>
<path d="M53.823,55.506v-35.91c0-0.553-0.448-1-1-1h-1.218c-0.552,0-1,0.447-1,1s0.448,1,1,1h0.218v33.91H16.081l-2.197-2.199
	c-0.39-0.39-1.024-0.392-1.414,0c-0.391,0.39-0.391,1.024-0.001,1.414l2.49,2.492c0.188,0.188,0.442,0.293,0.707,0.293h37.156
	C53.375,56.506,53.823,56.059,53.823,55.506z"/>
<path d="M35.499,12.236c-0.552,0-1,0.447-1,1v17.229c0,0.382,0.217,0.73,0.56,0.899c0.14,0.068,0.29,0.101,0.44,0.101
	c0.218,0,0.434-0.071,0.613-0.21l3.348-2.595L43,31.27c0.304,0.226,0.708,0.259,1.044,0.088c0.337-0.17,0.549-0.516,0.549-0.893
	V13.236c0-0.553-0.448-1-1-1c-0.552,0-1,0.447-1,1v15.249l-2.556-1.884c-0.359-0.266-0.852-0.26-1.206,0.015l-2.332,1.808V13.236
	C36.499,12.684,36.051,12.236,35.499,12.236z"/>
</svg>
