<?xml version="1.0" encoding="utf-8"?>
<!-- Generator: Adobe Illustrator 18.1.1, SVG Export Plug-In . SVG Version: 6.00 Build 0)  -->
<svg version="1.1" id="Icons" xmlns="http://www.w3.org/2000/svg" xmlns:xlink="http://www.w3.org/1999/xlink" x="0px" y="0px"
	 viewBox="0 0 144 144" enable-background="new 0 0 144 144" xml:space="preserve">
<g id="Take_Off">
	<g id="XMLID_1131_">
		<path id="XMLID_1175_" opacity="0.1" d="M122.517,39.658c4.029-2.068,5.645-7.081,3.593-11.141h0
			c-2.053-4.059-7.028-5.688-11.057-3.62l-13.702,7.035c-0.181,6.359-2.127,16.597-11.48,24.486L122.517,39.658z"/>

			<line id="XMLID_1173_" fill="none" stroke-width="4" stroke-linecap="round" stroke-linejoin="round" stroke-miterlimit="10" x1="10" y1="120" x2="134" y2="120"/>

			<path id="XMLID_1172_" fill="none" stroke-width="4" stroke-linecap="round" stroke-linejoin="round" stroke-miterlimit="10" d="
			M81.177,42.29c0,0-25.863-16.935-35.018-12.234c-4.237,2.179-7.325,3.76-7.325,3.76l18.538,20.695l-17.396,8.931l-15.652-3.585
			L17,63.618l13.89,13.785c5.027,3.955,12.315,2.973,18.381-0.141l73.245-37.604c4.028-2.068,5.645-7.081,3.592-11.141l0,0
			c-2.053-4.059-7.028-5.688-11.057-3.62L81.177,42.29"/>

			<path id="XMLID_1171_" fill="none" stroke-width="4" stroke-linecap="round" stroke-linejoin="round" stroke-miterlimit="10" d="
			M126.109,28.517"/>

			<path id="XMLID_1139_" fill="none" stroke-width="4" stroke-linecap="round" stroke-linejoin="round" stroke-miterlimit="10" d="
			M101.35,31.932c-0.181,6.359-2.127,16.597-11.48,24.486"/>
	</g>
</g>
<g id="Plane_Window">
</g>
<g id="International_Travel">
</g>
<g id="Meal">
</g>
<g id="Landing">
</g>
<g id="Shuttle_Bus">
</g>
<g id="Hotel">
</g>
<g id="Hotel_Check-In">
</g>
<g id="Valet_1_">
</g>
<g id="Baggage_Trolley">
</g>
<g id="Door_Hanger">
</g>
<g id="Hotel_Room">
</g>
<g id="Shower">
</g>
</svg>
