<?xml version="1.0" encoding="utf-8"?>
<!-- Generator: Adobe Illustrator 16.0.0, SVG Export Plug-In . SVG Version: 6.00 Build 0)  -->
<!DOCTYPE svg PUBLIC "-//W3C//DTD SVG 1.1//EN" "http://www.w3.org/Graphics/SVG/1.1/DTD/svg11.dtd">
<svg version="1.1" xmlns="http://www.w3.org/2000/svg" xmlns:xlink="http://www.w3.org/1999/xlink" x="0px" y="0px" width="64px"
	 height="64px" viewBox="0 0 64 64" enable-background="new 0 0 64 64" xml:space="preserve">
<g id="eye">
	<g>
		<path fill="#1D1D1B" d="M32,0C14.355,0,0,14.355,0,32s14.355,32,32,32s32-14.355,32-32S49.645,0,32,0z M32,60
			C16.561,60,4,47.439,4,32S16.561,4,32,4s28,12.561,28,28S47.439,60,32,60z"/>
		<circle fill="#1D1D1B" cx="20.518" cy="21.361" r="4.338"/>
		<circle fill="#1D1D1B" cx="43.48" cy="21.361" r="4.338"/>
		<path fill="#1D1D1B" d="M32,36.643c-9.732,0-14.355,6.859-15.441,10.484c-0.316,1.055,0.281,2.16,1.334,2.48
			c0.193,0.061,0.389,0.088,0.582,0.088c0.854,0,1.646-0.553,1.912-1.41c0.098-0.312,2.488-7.643,11.613-7.643
			c9.107,0,11.504,7.299,11.611,7.641c0.262,0.861,1.055,1.418,1.914,1.418c0.189,0,0.383-0.027,0.572-0.084
			c1.059-0.316,1.66-1.432,1.344-2.488C46.357,43.502,41.734,36.643,32,36.643z"/>
	</g>
</g>
<g id="comment">
</g>
<g id="map-marker">
</g>
<g id="earth">
</g>
<g id="heart">
</g>
<g id="twitter">
</g>
<g id="bucket">
</g>
<g id="paperclip">
</g>
<g id="undo">
</g>
<g id="redo">
</g>
<g id="chevron-left">
</g>
<g id="chevron-right">
</g>
<g id="cross">
</g>
<g id="search">
</g>
<g id="hamburger">
</g>
</svg>
