<?xml version="1.0" encoding="utf-8"?>
<!-- Generator: Adobe Illustrator 18.1.1, SVG Export Plug-In . SVG Version: 6.00 Build 0)  -->
<svg version="1.1" id="Icons" xmlns="http://www.w3.org/2000/svg" xmlns:xlink="http://www.w3.org/1999/xlink" x="0px" y="0px"
	 viewBox="0 0 144 144" enable-background="new 0 0 144 144" xml:space="preserve">
<g id="Travel_Planning">
</g>
<g id="Globe_1_">
</g>
<g id="Map">
</g>
<g id="Flight_Date">
</g>
<g id="Alarm_Clock">
</g>
<g id="Small_Suitcase">
</g>
<g id="Backpack">
</g>
<g id="Large_Suitcase">
</g>
<g id="Toiletries">
</g>
<g id="Camera">
</g>
<g id="Phone">
</g>
<g id="Laptop">
	<g id="XMLID_666_">
		
			<path id="XMLID_679_" fill="none" stroke="#000000" stroke-width="4" stroke-linecap="round" stroke-linejoin="round" stroke-miterlimit="10" d="
			M127,109H17c-3.85,0-7-3.15-7-7v-1c0-1.1,0.9-2,2-2h120c1.105,0,2,0.895,2,2v1C134,105.85,130.85,109,127,109z"/>
		
			<path id="XMLID_678_" fill="none" stroke="#000000" stroke-width="4" stroke-linecap="round" stroke-linejoin="round" stroke-miterlimit="10" d="
			M120,99H24V41c0-3.3,2.7-6,6-6h84c3.3,0,6,2.7,6,6V99z"/>
		<path id="XMLID_671_" opacity="0.1" d="M32,43v56h80V43H32z M102,89H66v-8H42V53h36v8h24V89z"/>
		
			<polyline id="XMLID_670_" fill="none" stroke="#000000" stroke-width="4" stroke-linecap="round" stroke-linejoin="round" stroke-miterlimit="10" points="
			78,61 78,53 42,53 42,81 66,81 		"/>
		
			<rect id="XMLID_669_" x="66" y="61" fill="none" stroke="#000000" stroke-width="4" stroke-linecap="round" stroke-linejoin="round" stroke-miterlimit="10" width="36" height="28"/>
		
			<rect id="XMLID_668_" x="32" y="43" fill="none" stroke="#000000" stroke-width="4" stroke-linecap="round" stroke-linejoin="round" stroke-miterlimit="10" width="80" height="56"/>
	</g>
</g>
<g id="Passport">
</g>
<g id="Taxi">
</g>
<g id="Signs">
</g>
<g id="Airport">
</g>
<g id="Wind_Sock">
</g>
<g id="Check-In">
</g>
<g id="Ticket">
</g>
<g id="Wallet">
</g>
<g id="Tag">
</g>
<g id="Escalator">
</g>
<g id="Body_Scanner">
</g>
<g id="Walking_with_Suitcase">
</g>
<g id="Gate_Number">
</g>
<g id="Seats">
</g>
<g id="Seat_Belt">
</g>
<g id="Take_Off">
</g>
<g id="Plane_Window">
</g>
<g id="International_Travel">
</g>
<g id="Meal">
</g>
<g id="Landing">
</g>
<g id="Shuttle_Bus">
</g>
<g id="Hotel">
</g>
<g id="Hotel_Check-In">
</g>
<g id="Valet_1_">
</g>
<g id="Baggage_Trolley">
</g>
<g id="Door_Hanger">
</g>
<g id="Hotel_Room">
</g>
<g id="Shower">
</g>
</svg>
