<!DOCTYPE svg PUBLIC "-//W3C//DTD SVG 1.1//EN" "http://www.w3.org/Graphics/SVG/1.1/DTD/svg11.dtd">
<svg version="1.1" id="Layer_1" xmlns="http://www.w3.org/2000/svg" xmlns:xlink="http://www.w3.org/1999/xlink" x="0px" y="0px"
	 width="64px" height="64px" viewBox="0 0 64 64" enable-background="new 0 0 64 64" xml:space="preserve">
<g>
	<path d="M56.892,7.107c-1.531-1.532-3.57-2.374-5.743-2.374c-2.17,0-4.212,0.842-5.743,2.374l-13.2,13.201
		c-2.876,2.876-3.147,7.542-0.66,10.731l-0.505,0.504c-1.417-1.106-3.181-1.713-4.994-1.713c-2.169,0-4.208,0.843-5.736,2.375
		l-13.203,13.2c-1.532,1.531-2.374,3.57-2.374,5.743c0,2.17,0.842,4.209,2.374,5.74c1.532,1.532,3.571,2.379,5.743,2.379
		s4.211-0.847,5.742-2.379l13.202-13.2c2.877-2.876,3.146-7.541,0.662-10.73l0.505-0.503c1.417,1.103,3.181,1.709,4.99,1.712h0.003
		c2.17,0,4.206-0.844,5.737-2.375l13.2-13.2c1.532-1.532,2.376-3.57,2.376-5.743C59.268,10.677,58.424,8.638,56.892,7.107z
		 M42.075,23.337c0.19-0.188,0.293-0.439,0.293-0.708c0-0.267-0.103-0.517-0.293-0.708c-0.375-0.376-1.034-0.377-1.415,0
		l-7.946,7.948c-1.88-2.567-1.623-6.127,0.65-8.401l13.203-13.2c1.222-1.221,2.851-1.895,4.581-1.895
		c1.733,0,3.359,0.674,4.584,1.895c2.524,2.526,2.524,6.637,0,9.164l-13.203,13.2c-1.222,1.221-2.847,1.894-4.578,1.894
		c-1.377,0-2.721-0.439-3.822-1.243L42.075,23.337z M21.513,41.07c-0.188,0.19-0.293,0.439-0.293,0.706s0.105,0.519,0.293,0.709
		c0.379,0.378,1.037,0.381,1.415,0l8.357-8.359c1.881,2.568,1.624,6.127-0.652,8.403l-13.2,13.2
		c-1.223,1.221-2.85,1.895-4.582,1.895S9.49,56.95,8.27,55.729c-1.224-1.222-1.896-2.848-1.896-4.581s0.674-3.359,1.896-4.584
		l13.199-13.2c1.223-1.22,2.848-1.894,4.581-1.894c1.375,0,2.719,0.439,3.821,1.243L21.513,41.07z"/>
</g>
</svg>
