<?xml version="1.0" encoding="iso-8859-1"?>
<!-- Generator: Adobe Illustrator 18.1.1, SVG Export Plug-In . SVG Version: 6.00 Build 0)  -->
<svg version="1.1" id="Capa_1" xmlns="http://www.w3.org/2000/svg" xmlns:xlink="http://www.w3.org/1999/xlink" x="0px" y="0px"
	 viewBox="0 0 30.594 30.719" style="enable-background:new 0 0 30.594 30.719;" xml:space="preserve">
<g>
	<path style="fill-rule:evenodd;clip-rule:evenodd;fill:#050008;" d="M0.001,10.481c0-0.264,0.215-0.478,0.478-0.478
		s0.478,0.215,0.478,0.478v17.29c0,0.547,0.225,1.045,0.585,1.406c0.361,0.361,0.859,0.586,1.406,0.586h24.699
		c0.547,0,1.045-0.225,1.406-0.586c0.361-0.361,0.585-0.859,0.585-1.406v-17.29c0-0.264,0.215-0.478,0.478-0.478
		s0.478,0.215,0.478,0.478v17.29c0,0.811-0.332,1.549-0.865,2.082c-0.534,0.534-1.271,0.866-2.082,0.866H2.948
		c-0.811,0-1.549-0.332-2.082-0.866c-0.533-0.533-0.865-1.271-0.865-2.082V10.481z"/>
	<path style="fill-rule:evenodd;clip-rule:evenodd;fill:#050008;" d="M9.262,12.194H4.661v5.218h4.601V12.194L9.262,12.194z
		 M4.183,11.238h5.545H9.74c0.264,0,0.478,0.215,0.478,0.478v6.162v0.012c0,0.264-0.215,0.478-0.478,0.478H4.195H4.183
		c-0.264,0-0.478-0.215-0.478-0.478v-6.162v-0.012C3.704,11.453,3.919,11.238,4.183,11.238z"/>
	<path style="fill-rule:evenodd;clip-rule:evenodd;fill:#050008;" d="M25.934,12.194h-4.601v5.218h4.601V12.194L25.934,12.194z
		 M20.854,11.238h5.545h0.013c0.264,0,0.478,0.215,0.478,0.478v6.162v0.012c0,0.264-0.215,0.478-0.478,0.478h-5.545h-0.012
		c-0.264,0-0.479-0.215-0.479-0.478v-6.162v-0.012C20.376,11.453,20.591,11.238,20.854,11.238z"/>
	<path style="fill-rule:evenodd;clip-rule:evenodd;fill:#050008;" d="M17.597,12.194h-4.601v5.218h4.601V12.194L17.597,12.194z
		 M12.518,11.238h5.545h0.013c0.264,0,0.478,0.215,0.478,0.478v6.162v0.012c0,0.264-0.215,0.478-0.478,0.478h-5.545h-0.013
		c-0.264,0-0.478-0.215-0.478-0.478v-6.162v-0.012C12.04,11.453,12.255,11.238,12.518,11.238z"/>
	<path style="fill-rule:evenodd;clip-rule:evenodd;fill:#050008;" d="M9.262,20.84H4.661v5.218h4.601V20.84L9.262,20.84z
		 M4.183,19.883h5.545H9.74c0.264,0,0.478,0.215,0.478,0.478v6.162v0.013c0,0.264-0.215,0.478-0.478,0.478H4.195H4.183
		c-0.264,0-0.478-0.215-0.478-0.478v-6.162v-0.012C3.704,20.098,3.919,19.883,4.183,19.883z"/>
	<path style="fill-rule:evenodd;clip-rule:evenodd;fill:#050008;" d="M25.934,20.84h-4.601v5.218h4.601V20.84L25.934,20.84z
		 M20.854,19.883h5.545h0.013c0.264,0,0.478,0.215,0.478,0.478v6.162v0.013c0,0.264-0.215,0.478-0.478,0.478h-5.545h-0.012
		c-0.264,0-0.479-0.215-0.479-0.478v-6.162v-0.012C20.376,20.098,20.591,19.883,20.854,19.883z"/>
	<path style="fill-rule:evenodd;clip-rule:evenodd;fill:#050008;" d="M17.597,20.84h-4.601v5.218h4.601V20.84L17.597,20.84z
		 M12.518,19.883h5.545h0.013c0.264,0,0.478,0.215,0.478,0.478v6.162v0.013c0,0.264-0.215,0.478-0.478,0.478h-5.545h-0.013
		c-0.264,0-0.478-0.215-0.478-0.478v-6.162v-0.012C12.04,20.098,12.255,19.883,12.518,19.883z"/>
	<path style="fill-rule:evenodd;clip-rule:evenodd;fill:#050008;" d="M22.946,5.635c0,0.264-0.215,0.478-0.478,0.478
		c-0.264,0-0.478-0.215-0.478-0.478V0.478C21.989,0.215,22.204,0,22.467,0c0.264,0,0.478,0.215,0.478,0.478V5.635z"/>
	<path style="fill-rule:evenodd;clip-rule:evenodd;fill:#050008;" d="M8.605,5.635c0,0.264-0.215,0.478-0.478,0.478
		c-0.264,0-0.478-0.215-0.478-0.478V0.478C7.648,0.215,7.863,0,8.126,0C8.39,0,8.605,0.215,8.605,0.478V5.635z"/>
	<path style="fill-rule:evenodd;clip-rule:evenodd;fill:#050008;" d="M8.126,2.393c0.264,0,0.478,0.214,0.478,0.478
		c0,0.264-0.215,0.478-0.478,0.478H2.948c-0.543,0-1.041,0.226-1.404,0.588L1.521,3.96C1.173,4.318,0.956,4.808,0.956,5.34v2.193
		h28.681V5.34c0-0.545-0.226-1.042-0.587-1.403l-0.023-0.024c-0.359-0.348-0.849-0.564-1.382-0.564h-3.269
		c-0.264,0-0.478-0.215-0.478-0.478c0-0.264,0.215-0.478,0.478-0.478h3.269c0.788,0,1.515,0.321,2.048,0.838l0.033,0.03
		c0.533,0.534,0.867,1.27,0.867,2.079v2.658v0.013c0,0.264-0.215,0.478-0.478,0.478H0.491H0.478C0.215,8.49,0,8.275,0,8.011V5.34
		c0-0.789,0.321-1.514,0.838-2.047l0.03-0.033c0.535-0.535,1.272-0.868,2.08-0.868H8.126L8.126,2.393z M22.467,2.393h-12.43
		c-0.264,0-0.478,0.214-0.478,0.478c0,0.264,0.215,0.478,0.478,0.478h12.43c0.264,0,0.478-0.215,0.478-0.478
		C22.946,2.607,22.731,2.393,22.467,2.393z"/>
</g>
<g>
</g>
<g>
</g>
<g>
</g>
<g>
</g>
<g>
</g>
<g>
</g>
<g>
</g>
<g>
</g>
<g>
</g>
<g>
</g>
<g>
</g>
<g>
</g>
<g>
</g>
<g>
</g>
<g>
</g>
</svg>
