<?xml version="1.0" encoding="iso-8859-1"?>
<!-- Generator: Adobe Illustrator 17.1.0, SVG Export Plug-In . SVG Version: 6.00 Build 0)  -->
<!DOCTYPE svg PUBLIC "-//W3C//DTD SVG 1.1//EN" "http://www.w3.org/Graphics/SVG/1.1/DTD/svg11.dtd">
<svg version="1.1" id="Artwork" xmlns="http://www.w3.org/2000/svg" xmlns:xlink="http://www.w3.org/1999/xlink" x="0px" y="0px"
	 width="256px" height="256px" viewBox="0 0 256 256" style="enable-background:new 0 0 256 256;" xml:space="preserve">
<g>
	<path d="M191.054,169.359c0.155,0.025,4.422,0.115,6.578,0.115c16.537,0,29.99-11.539,29.99-25.722
		c0-14.183-13.453-25.722-29.99-25.722c-1.842,0-3.609,0.013-5.294,0.036v-5.198c0-1.864-1.381-3.376-3.245-3.376
		c-2.027,0-110.6,0-138.277,0c-1.864,0-3.326,1.38-3.326,3.244v44.323c0,22.358,11.213,37.662,32.822,45.345
		c-3.129,1.456-5.309,4.621-5.309,8.293c0,0.831,0.121,1.634,0.33,2.4H41.797c-7.524,0-13.419,4.337-13.419,9.874v3.575
		c0,1.864,1.511,3.375,3.375,3.375h176.4c1.864,0,3.375-1.511,3.375-3.375v-3.575c0-5.537-5.894-9.874-13.419-9.874h-33.615
		c0.209-0.766,0.33-1.568,0.33-2.4c0-3.672-2.18-6.838-5.309-8.293C176.9,196.224,187.552,185.109,191.054,169.359z
		 M197.632,124.781c12.815,0,23.24,8.511,23.24,18.972c0,10.461-10.425,18.972-23.24,18.972c-1.954,0-3.814-0.02-5.546-0.057
		c0.165-1.818,0.252-3.685,0.252-5.607v-19.7c1.385-0.016,4.675-0.025,5.753-0.025c4.532,0,8.218,2.853,8.218,6.359
		c0,2.339-1.756,4.557-4.473,5.651c-1.729,0.696-2.566,2.662-1.87,4.391c0.53,1.316,1.795,2.115,3.132,2.115
		c0.42,0,0.846-0.079,1.259-0.245c5.286-2.128,8.701-6.805,8.701-11.913c0-7.228-6.715-13.109-14.968-13.109
		c-0.967,0-4.221,0.008-5.753,0.025v-5.792C194.018,124.794,195.787,124.781,197.632,124.781z M149.997,213.098
		c-1.864,0-3.375,1.511-3.375,3.375c0,1.864,1.511,3.375,3.375,3.375h48.113c4.009,0,6.669,1.88,6.669,3.124v0.2H35.128v-0.2
		c0-1.243,2.66-3.124,6.669-3.124h83.9c1.864,0,3.375-1.511,3.375-3.375c0-1.864-1.511-3.375-3.375-3.375H84.154
		c-1.324,0-2.4-1.077-2.4-2.4s1.077-2.4,2.4-2.4h71.521c1.324,0,2.4,1.077,2.4,2.4s-1.077,2.4-2.4,2.4H149.997z M119.914,201.391
		c-43.578,0-65.674-14.915-65.674-44.332v-41.098c0,0,127.092-0.016,131.37,0l-0.022,41.098
		C185.588,186.476,163.492,201.391,119.914,201.391z"/>
	<path d="M95.765,92.572c-1.012,1.565-0.564,3.655,1.002,4.667c0.566,0.366,1.201,0.541,1.829,0.541
		c1.107,0,2.192-0.544,2.837-1.543c0.541-0.837,13.119-20.673,1.322-35.715c-8.209-10.465,3.419-24.714,3.537-24.857
		c1.191-1.43,1-3.555-0.428-4.749c-1.43-1.196-3.558-1.006-4.754,0.424c-0.154,0.184-3.8,4.583-6.13,10.72
		c-3.261,8.592-2.41,16.417,2.463,22.629C106.26,75.927,95.868,92.411,95.765,92.572z"/>
	<path d="M143.209,92.572c-1.012,1.565-0.564,3.655,1.002,4.667c0.566,0.366,1.202,0.541,1.829,0.541
		c1.107,0,2.192-0.544,2.837-1.543c0.541-0.837,13.119-20.673,1.321-35.715c-8.192-10.444,3.372-24.657,3.537-24.856
		c1.192-1.43,1.001-3.556-0.427-4.75c-1.43-1.196-3.558-1.006-4.754,0.424c-0.154,0.184-3.8,4.583-6.13,10.72
		c-3.261,8.592-2.41,16.417,2.463,22.629C153.704,75.927,143.312,92.411,143.209,92.572z"/>
	<path d="M118.787,96.315c-1.181,1.442-0.969,3.569,0.472,4.75c0.628,0.514,1.384,0.764,2.137,0.764
		c0.977,0,1.946-0.422,2.613-1.236c0.176-0.215,4.344-5.357,6.65-12.785c3.152-10.152,1.366-19.675-5.165-27.54
		c-9.532-11.479,3.483-28.505,3.662-28.735c1.147-1.467,0.89-3.586-0.576-4.735c-1.467-1.149-3.588-0.893-4.738,0.574
		c-0.683,0.871-16.572,21.514-3.54,37.209C132.42,79.174,119.345,95.628,118.787,96.315z"/>
</g>
</svg>
