<svg xmlns="http://www.w3.org/2000/svg" width="24" height="22" viewBox="0 0 24 22">
  <defs>
    <style>
      .cls-1 {
        fill: #bdc3c7;
        fill-rule: evenodd;
      }
    </style>
  </defs>
  <path id="cloud-up" class="cls-1" d="M944,401.482V399h-0.111a6.988,6.988,0,1,0-11.788-6H930a3.988,3.988,0,0,0-2,7.445v2.188A5.986,5.986,0,0,1,930,391c0.173,0,.335.036,0.5,0.051A9,9,0,1,1,944,401.482Zm-8.771-6.094c0.013-.016.032-0.024,0.046-0.039a0.916,0.916,0,0,1,.256-0.216h0a0.832,0.832,0,0,1,.372-0.111c0.007,0,.011,0,0.017,0l0.033-.006c0.016,0,.03-0.01.046-0.01a0.179,0.179,0,0,1,.047.01c0.011,0,.021,0,0.032.006a0.155,0.155,0,0,0,.031.006,0.817,0.817,0,0,1,.258.052c0.036,0.015.064,0.038,0.1,0.056a0.9,0.9,0,0,1,.192.13,0.883,0.883,0,0,1,.083.108l3.792,2.559a1.218,1.218,0,0,1,.348,1.518,0.879,0.879,0,0,1-1.3.406L937,398.109V406a1,1,0,0,1-2,0v-7.891l-2.582,1.742a0.88,0.88,0,0,1-1.3-.406,1.22,1.22,0,0,1,.348-1.518Z" transform="translate(-924 -385)"/>
</svg>
